<svg width="20" height="23" viewBox="0 0 20 23" fill="none" xmlns="http://www.w3.org/2000/svg">
<path d="M17.7841 3.00735V2.50735V3.00735ZM19 4.18179H18.5H19ZM1 4.18179H0.5H1ZM2.21592 3.00735V3.50735V3.00735ZM17.7841 21.979V21.479V21.979ZM19 20.8045H19.5H19ZM5.21408 19.0819H5.71408H5.21408ZM3.99679 17.9074V18.4074H3.99733L3.99679 17.9074ZM1.4682 18.3648L1.12012 18.7238L1.4682 18.3648ZM6.7395 21.979V22.479V21.979ZM4.10643 20.919L3.75914 21.2787L4.10643 20.919ZM1.61017 8.52941C1.33403 8.52941 1.11017 8.75327 1.11017 9.02941C1.11017 9.30555 1.33403 9.52941 1.61017 9.52941V8.52941ZM18.8475 9.52941C19.1236 9.52941 19.3475 9.30555 19.3475 9.02941C19.3475 8.75327 19.1236 8.52941 18.8475 8.52941V9.52941ZM6.07748 5.44081C6.07748 5.71695 6.30134 5.94081 6.57748 5.94081C6.85362 5.94081 7.07748 5.71695 7.07748 5.44081H6.07748ZM7.07748 1C7.07748 0.723858 6.85362 0.5 6.57748 0.5C6.30134 0.5 6.07748 0.723858 6.07748 1H7.07748ZM13.3995 5.44081C13.3995 5.71695 13.6234 5.94081 13.8995 5.94081C14.1757 5.94081 14.3995 5.71695 14.3995 5.44081H13.3995ZM14.3995 1C14.3995 0.723858 14.1757 0.5 13.8995 0.5C13.6234 0.5 13.3995 0.723858 13.3995 1H14.3995ZM6.49152 12.5441C6.21538 12.5441 5.99152 12.768 5.99152 13.0441C5.99152 13.3203 6.21538 13.5441 6.49152 13.5441V12.5441ZM6.64407 13.5441C6.92021 13.5441 7.14407 13.3203 7.14407 13.0441C7.14407 12.768 6.92021 12.5441 6.64407 12.5441V13.5441ZM6.49152 15.9412C6.21538 15.9412 5.99152 16.165 5.99152 16.4412C5.99152 16.7173 6.21538 16.9412 6.49152 16.9412V15.9412ZM6.64407 16.9412C6.92021 16.9412 7.14407 16.7173 7.14407 16.4412C7.14407 16.165 6.92021 15.9412 6.64407 15.9412V16.9412ZM10.1525 12.5441C9.8764 12.5441 9.65254 12.768 9.65254 13.0441C9.65254 13.3203 9.8764 13.5441 10.1525 13.5441V12.5441ZM10.3051 13.5441C10.5812 13.5441 10.8051 13.3203 10.8051 13.0441C10.8051 12.768 10.5812 12.5441 10.3051 12.5441V13.5441ZM10.1525 15.9412C9.8764 15.9412 9.65254 16.165 9.65254 16.4412C9.65254 16.7173 9.8764 16.9412 10.1525 16.9412V15.9412ZM10.3051 16.9412C10.5812 16.9412 10.8051 16.7173 10.8051 16.4412C10.8051 16.165 10.5812 15.9412 10.3051 15.9412V16.9412ZM13.8136 12.5441C13.5374 12.5441 13.3136 12.768 13.3136 13.0441C13.3136 13.3203 13.5374 13.5441 13.8136 13.5441V12.5441ZM13.9661 13.5441C14.2422 13.5441 14.4661 13.3203 14.4661 13.0441C14.4661 12.768 14.2422 12.5441 13.9661 12.5441V13.5441ZM13.8136 15.9412C13.5374 15.9412 13.3136 16.165 13.3136 16.4412C13.3136 16.7173 13.5374 16.9412 13.8136 16.9412V15.9412ZM13.9661 16.9412C14.2422 16.9412 14.4661 16.7173 14.4661 16.4412C14.4661 16.165 14.2422 15.9412 13.9661 15.9412V16.9412ZM17.7841 21.479H6.7395V22.479H17.7841V21.479ZM1.5 17.2519V4.18179H0.5L0.5 17.2519H1.5ZM2.21592 3.50735L17.7841 3.50735V2.50735L2.21592 2.50735V3.50735ZM18.5 4.18179L18.5 20.8045H19.5L19.5 4.18179H18.5ZM17.7841 3.50735C18.196 3.50735 18.5 3.82552 18.5 4.18179H19.5C19.5 3.24081 18.7153 2.50735 17.7841 2.50735V3.50735ZM1.5 4.18179C1.5 3.82552 1.80403 3.50735 2.21592 3.50735V2.50735C1.28474 2.50735 0.5 3.24081 0.5 4.18179H1.5ZM4.45372 20.5593C3.5954 19.7306 2.44876 18.6192 1.81628 18.0059L1.12012 18.7238C1.75261 19.3371 2.89996 20.4492 3.75914 21.2787L4.45372 20.5593ZM17.7841 22.479C18.7153 22.479 19.5 21.7455 19.5 20.8045H18.5C18.5 21.1608 18.196 21.479 17.7841 21.479V22.479ZM4.71408 19.0819L4.71408 22H5.71408V19.0819H4.71408ZM1 18.4074L3.99679 18.4074L3.99679 17.4074L1 17.4074L1 18.4074ZM5.71408 19.0819C5.71408 18.1401 4.92814 17.4064 3.99624 17.4074L3.99733 18.4074C4.40957 18.407 4.71408 18.7253 4.71408 19.0819H5.71408ZM0.5 17.2519C0.5 17.8062 0.721474 18.3372 1.12012 18.7238L1.81628 18.0059C1.6145 17.8102 1.5 17.5393 1.5 17.2519H0.5ZM6.7395 21.479C6.40039 21.479 5.95922 21.3813 5.52196 21.2057C5.08458 21.0301 4.69849 20.7956 4.45372 20.5593L3.75914 21.2787C4.12401 21.631 4.63322 21.9265 5.14936 22.1337C5.66561 22.341 6.23615 22.479 6.7395 22.479V21.479ZM1.61017 9.52941H18.8475V8.52941H1.61017V9.52941ZM7.07748 5.44081V1H6.07748V5.44081H7.07748ZM14.3995 5.44081V1H13.3995V5.44081H14.3995ZM6.49152 13.5441H6.64407V12.5441H6.49152V13.5441ZM6.49152 16.9412H6.64407V15.9412H6.49152V16.9412ZM10.1525 13.5441H10.3051V12.5441H10.1525V13.5441ZM10.1525 16.9412H10.3051V15.9412H10.1525V16.9412ZM13.8136 13.5441H13.9661V12.5441H13.8136V13.5441ZM13.8136 16.9412H13.9661V15.9412H13.8136V16.9412Z" fill="white"/>
</svg>
