<svg width="26" height="23" viewBox="0 0 26 23" fill="none" xmlns="http://www.w3.org/2000/svg">
<path d="M5.29851 7.61237C2.75185 8.81986 1 11.3404 1 14.2542C1 15.9158 1.56975 17.4496 2.53174 18.6849L1.26031 21.6559C1.19955 21.8509 1.3781 22.0371 1.58412 21.9936L5.04105 20.768C6.12981 21.3343 7.37658 21.6559 8.70149 21.6559C10.4514 21.6559 12.065 21.095 13.3582 20.15M25 10.4672C25 12.5926 24.2713 14.5544 23.0408 16.1344L24.667 19.9344C24.7448 20.1839 24.5164 20.4221 24.2529 20.3664L19.8312 18.7988C18.4386 19.5232 16.8439 19.9344 15.1493 19.9344C9.70884 19.9344 5.29851 15.6958 5.29851 10.4672C5.29851 5.23862 9.70884 1 15.1493 1C20.5897 1 25 5.23862 25 10.4672Z" stroke="white" stroke-linecap="round" stroke-linejoin="round"/>
</svg>
