<svg width="30" height="30" viewBox="0 0 30 30" fill="none" xmlns="http://www.w3.org/2000/svg">
<path d="M21.2475 8.9088C21.6492 8.80297 22.0667 8.75005 22.5 8.75005C23.2108 8.75078 23.9133 8.90307 24.5607 9.19676C25.208 9.49045 25.7853 9.91879 26.254 10.4532C26.7227 10.9876 27.072 11.6158 27.2787 12.2959C27.4855 12.9761 27.5448 13.6924 27.4528 14.3973C27.3608 15.1021 27.1195 15.7793 26.7451 16.3835C26.3707 16.9878 25.8718 17.5052 25.2816 17.9014C24.6914 18.2976 24.0236 18.5634 23.3225 18.6811C22.6215 18.7987 21.9034 18.7656 21.2162 18.5838M21.2475 8.9088L21.25 8.75005C21.2519 7.51511 20.7968 6.32314 19.9722 5.4038C19.1477 4.48445 18.0121 3.90277 16.7842 3.77082C15.5564 3.63887 14.3231 3.966 13.322 4.68917C12.321 5.41234 11.623 6.4804 11.3625 7.68755M21.2475 8.9088C21.2217 9.73219 20.9928 10.5364 20.5813 11.2501M21.2162 18.5838C21.2387 18.4338 21.25 18.2809 21.25 18.1251C21.2501 17.4046 21.0014 16.7063 20.5458 16.1482C20.0902 15.5902 19.4559 15.2066 18.75 15.0626M21.2162 18.5838C21.1062 19.325 20.7336 20.002 20.1661 20.4914C19.5987 20.9808 18.8743 21.2501 18.125 21.2501H17.5C16.1739 21.2501 14.9021 21.7768 13.9645 22.7145C13.0268 23.6522 12.5 24.924 12.5 26.2501M11.3625 7.68755C10.5029 7.44347 9.59366 7.4342 8.7293 7.66071C7.86493 7.88721 7.07706 8.34121 6.44765 8.97546C5.81825 9.60972 5.37031 10.4011 5.15045 11.2671C4.93058 12.1332 4.94683 13.0424 5.1975 13.9001M11.3625 7.68755C12.6155 8.04237 13.6806 8.87203 14.3313 10.0001M5.1975 13.9001C4.33256 14.1545 3.58944 14.712 3.10191 15.4704C2.61439 16.2288 2.41633 17.1374 2.54398 18.0299C2.67163 18.9224 3.11646 19.7391 3.79704 20.3305C4.47762 20.9218 5.34841 21.2483 6.25 21.2501C7.02581 21.2505 7.78266 21.0102 8.41623 20.5625C9.04979 20.1147 9.5289 19.4815 9.7875 18.7501M5.1975 13.9001C5.31083 14.2892 5.46875 14.6559 5.66875 15.0001M14.795 14.6801C14.1575 15.2938 13.0662 15.4001 12.1337 14.8763C11.2012 14.3513 10.725 13.3638 10.9187 12.5001" stroke="#0018A8" stroke-width="1.5" stroke-linecap="round" stroke-linejoin="round"/>
</svg>
