<svg width="27" height="27" viewBox="0 0 27 27" fill="none" xmlns="http://www.w3.org/2000/svg">
<circle cx="13.5" cy="13.5" r="13.5" fill="#CAD6FF"/>
<path d="M11.7185 7.06046C11.7185 7.33661 11.9424 7.56046 12.2185 7.56046C12.4947 7.56046 12.7185 7.33661 12.7185 7.06046H11.7185ZM15.1166 7.06046C15.1166 7.33661 15.3405 7.56046 15.6166 7.56046C15.8928 7.56046 16.1166 7.33661 16.1166 7.06046H15.1166ZM19.3946 15.119L19.0109 15.4396L19.3946 15.119ZM20.9885 17.9743L21.4826 17.8978L20.9885 17.9743ZM13.9967 6.29913C13.7205 6.29913 13.4967 6.52299 13.4967 6.79913C13.4967 7.07527 13.7205 7.29913 13.9967 7.29913V6.29913ZM19.2175 11.2769L18.7199 11.3262L19.2175 11.2769ZM8.60544 15.119L8.98908 15.4396H8.98908L8.60544 15.119ZM7.01155 17.9743L7.50567 18.0507L7.01155 17.9743ZM14.0033 7.29913C14.2795 7.29913 14.5033 7.07527 14.5033 6.79913C14.5033 6.52299 14.2795 6.29913 14.0033 6.29913V7.29913ZM8.78254 11.2769L8.28497 11.2276L8.78254 11.2769ZM16.1363 19.149V19.4076H17.1363V19.149H16.1363ZM11.7964 19.4076V19.149H10.7964V19.4076H11.7964ZM13.9663 21.5C12.7539 21.5 11.7964 20.5494 11.7964 19.4076H10.7964C10.7964 21.1293 12.2296 22.5 13.9663 22.5V21.5ZM16.1363 19.4076C16.1363 20.5494 15.1787 21.5 13.9663 21.5V22.5C15.703 22.5 17.1363 21.1293 17.1363 19.4076H16.1363ZM12.7185 7.06046C12.7185 6.49458 12.8803 6.10515 13.0917 5.86459C13.3002 5.62737 13.5859 5.5 13.9176 5.5V4.5C13.3109 4.5 12.747 4.74193 12.3406 5.20448C11.937 5.66369 11.7185 6.30449 11.7185 7.06046H12.7185ZM13.9176 5.5C14.2492 5.5 14.5349 5.62737 14.7434 5.86459C14.9548 6.10515 15.1166 6.49458 15.1166 7.06046H16.1166C16.1166 6.30449 15.8981 5.66369 15.4946 5.20448C15.0881 4.74193 14.5243 4.5 13.9176 4.5V5.5ZM19.0109 15.4396C19.1157 15.565 19.2768 15.7115 19.3936 15.8256C19.5269 15.9559 19.6682 16.1032 19.8066 16.2883C20.0784 16.6517 20.3611 17.1895 20.4943 18.0507L21.4826 17.8978C21.324 16.873 20.9762 16.1823 20.6073 15.6893C20.4254 15.446 20.2437 15.2581 20.0925 15.1104C19.9248 14.9464 19.8399 14.8722 19.7782 14.7983L19.0109 15.4396ZM13.9967 7.29913C13.9977 7.29913 13.9987 7.29913 13.9997 7.29913L14.0003 6.29913C13.9991 6.29913 13.9979 6.29913 13.9967 6.29913V7.29913ZM13.9997 7.29913C16.5187 7.30075 18.5238 9.34569 18.7199 11.3262L19.715 11.2276C19.4679 8.73214 17.0295 6.30108 14.0003 6.29913L13.9997 7.29913ZM18.7199 11.3262C18.8266 12.4038 18.7748 13.2122 18.7421 13.8345C18.7262 14.1377 18.7124 14.4292 18.7337 14.6773C18.7551 14.9272 18.8165 15.207 19.0109 15.4396L19.7782 14.7983C19.7756 14.7952 19.7442 14.7569 19.73 14.592C19.7158 14.4254 19.724 14.2056 19.7407 13.887C19.7734 13.2659 19.83 12.3889 19.715 11.2276L18.7199 11.3262ZM8.2218 14.7983C8.16007 14.8722 8.07521 14.9464 7.90747 15.1104C7.75632 15.2581 7.57464 15.446 7.39268 15.6893C7.02383 16.1823 6.67601 16.873 6.51743 17.8978L7.50567 18.0507C7.63894 17.1895 7.92156 16.6517 8.19343 16.2883C8.33184 16.1032 8.4731 15.9559 8.60642 15.8256C8.72315 15.7115 8.8843 15.565 8.98908 15.4396L8.2218 14.7983ZM14.0033 6.29913C14.0021 6.29913 14.0009 6.29913 13.9997 6.29913L14.0003 7.29913C14.0013 7.29913 14.0023 7.29913 14.0033 7.29913V6.29913ZM13.9997 6.29913C10.9705 6.30108 8.53209 8.73214 8.28497 11.2276L9.2801 11.3262C9.47622 9.34569 11.4813 7.30075 14.0003 7.29913L13.9997 6.29913ZM8.28497 11.2276C8.16997 12.3889 8.22662 13.2659 8.25927 13.887C8.27602 14.2056 8.28422 14.4254 8.26996 14.592C8.25585 14.7569 8.22438 14.7952 8.2218 14.7983L8.98908 15.4396C9.18348 15.207 9.24493 14.9272 9.26631 14.6773C9.28755 14.4292 9.27383 14.1377 9.25789 13.8345C9.22518 13.2122 9.17339 12.4038 9.2801 11.3262L8.28497 11.2276ZM8.14101 19.649H19.859V18.649H8.14101V19.649ZM6.51743 17.8978C6.36009 18.9145 7.23963 19.649 8.14101 19.649V18.649C7.70186 18.649 7.46383 18.3211 7.50567 18.0507L6.51743 17.8978ZM20.4943 18.0507C20.5362 18.3211 20.2981 18.649 19.859 18.649V19.649C20.7604 19.649 21.6399 18.9145 21.4826 17.8978L20.4943 18.0507Z" fill="black"/>
<circle cx="18.5" cy="8.5" r="2.5" fill="#2260FF"/>
</svg>
