<svg width="162" height="20" viewBox="0 0 162 20" fill="none" xmlns="http://www.w3.org/2000/svg">
<path d="M24.4512 13L24.417 12.4463L25.0732 12.2686C25.096 12.223 25.1143 12.0452 25.1279 11.7354C25.1416 11.4255 25.1484 11.054 25.1484 10.6211L25.1621 8.89844C25.1621 8.48828 25.153 8.12598 25.1348 7.81152C25.1211 7.49251 25.1029 7.31022 25.0801 7.26465L24.3828 7.12109L24.417 6.56055H27.2402C28.1562 6.56055 28.8376 6.72461 29.2842 7.05273C29.7308 7.38086 29.9541 7.84798 29.9541 8.4541C29.9541 9.06022 29.7194 9.56836 29.25 9.97852C28.7806 10.3887 28.1175 10.5938 27.2607 10.5938C27.1377 10.5938 27.0146 10.5869 26.8916 10.5732C26.7686 10.555 26.6523 10.5368 26.543 10.5186V9.75293C26.6159 9.78027 26.7116 9.80762 26.8301 9.83496C26.9531 9.85775 27.0967 9.86914 27.2607 9.86914C27.9717 9.86914 28.3271 9.44531 28.3271 8.59766C28.3271 8.11003 28.2087 7.75456 27.9717 7.53125C27.7393 7.30339 27.4089 7.18945 26.9805 7.18945H26.707C26.6979 7.27148 26.6911 7.44922 26.6865 7.72266C26.6865 7.99154 26.6865 8.38346 26.6865 8.89844L26.7002 10.6211C26.7002 11.054 26.7093 11.4255 26.7275 11.7354C26.7458 12.0452 26.7594 12.2207 26.7686 12.2617L27.6641 12.4258L27.6299 13H24.4512ZM30.5215 13L30.4873 12.4941L31.1709 12.3027C31.1755 12.2526 31.1823 12.1204 31.1914 11.9062C31.2051 11.6875 31.2165 11.4551 31.2256 11.209L31.2393 10.3818C31.2393 10.1722 31.2301 9.98535 31.2119 9.82129C31.1982 9.65267 31.1755 9.4681 31.1436 9.26758L30.4463 9.11719V8.61133L32.374 8.10547L32.6748 8.29688L32.627 9.17188L32.6611 9.17871C32.8662 8.77311 33.0758 8.4974 33.29 8.35156C33.5088 8.20117 33.7344 8.12598 33.9668 8.12598C34.1628 8.12598 34.3359 8.18294 34.4863 8.29688C34.6413 8.40625 34.7188 8.58171 34.7188 8.82324C34.7188 9.06022 34.6367 9.24935 34.4727 9.39062C34.3132 9.52734 34.124 9.5957 33.9053 9.5957C33.7275 9.5957 33.5658 9.5638 33.4199 9.5C33.2786 9.4362 33.126 9.31999 32.9619 9.15137L33.29 9.17871C33.0576 9.3291 32.8617 9.56608 32.7021 9.88965L32.7158 10.751C32.7204 11.1611 32.7272 11.5052 32.7363 11.7832C32.7454 12.0612 32.7546 12.2344 32.7637 12.3027L33.7207 12.4736L33.6934 13H30.5215ZM37.7266 13.082C37.2435 13.082 36.8151 12.9772 36.4414 12.7676C36.0723 12.5534 35.7829 12.264 35.5732 11.8994C35.3636 11.5303 35.2588 11.1156 35.2588 10.6553C35.2588 10.1494 35.3773 9.70508 35.6143 9.32227C35.8512 8.9349 36.1589 8.63184 36.5371 8.41309C36.9199 8.19434 37.3278 8.08496 37.7607 8.08496C38.4033 8.08496 38.9046 8.2832 39.2646 8.67969C39.6247 9.07617 39.8047 9.5957 39.8047 10.2383V10.5117H36.5713V9.92383H38.6973L38.5127 10.2041V9.81445C38.5127 9.47266 38.4375 9.20378 38.2871 9.00781C38.1413 8.81185 37.9362 8.71387 37.6719 8.71387C37.4076 8.71387 37.1842 8.8278 37.002 9.05566C36.8197 9.27897 36.7285 9.62533 36.7285 10.0947V10.3203C36.7285 10.8262 36.8652 11.234 37.1387 11.5439C37.4167 11.8538 37.7858 12.0088 38.2461 12.0088C38.4967 12.0088 38.7223 11.9632 38.9229 11.8721C39.1279 11.7809 39.3262 11.626 39.5176 11.4072L39.8594 11.7354C39.6543 12.1774 39.3649 12.5124 38.9912 12.7402C38.6175 12.9681 38.196 13.082 37.7266 13.082ZM42.293 13.082C41.9785 13.082 41.6686 13.0479 41.3633 12.9795C41.0625 12.9111 40.8073 12.8223 40.5977 12.7129L40.543 11.4141H41.2744L41.5068 12.207C41.7803 12.3711 42.0674 12.4531 42.3682 12.4531C42.5869 12.4531 42.7533 12.4098 42.8672 12.3232C42.9811 12.2321 43.0381 12.1136 43.0381 11.9678C43.0381 11.8037 42.9743 11.667 42.8467 11.5576C42.7236 11.4437 42.4639 11.3115 42.0674 11.1611C41.5342 10.9652 41.1605 10.751 40.9463 10.5186C40.7321 10.2816 40.625 9.98535 40.625 9.62988C40.625 9.17871 40.8278 8.80957 41.2334 8.52246C41.6436 8.23079 42.1768 8.08496 42.833 8.08496C43.0745 8.08496 43.3161 8.10775 43.5576 8.15332C43.7992 8.19889 43.9997 8.25814 44.1592 8.33105L44.2822 9.61621H43.5645L43.3252 8.83008C43.2523 8.78906 43.1611 8.75488 43.0518 8.72754C42.9469 8.7002 42.849 8.68652 42.7578 8.68652C42.5436 8.68652 42.3704 8.73438 42.2383 8.83008C42.1061 8.92578 42.04 9.05111 42.04 9.20605C42.04 9.37923 42.1198 9.52507 42.2793 9.64355C42.4434 9.75749 42.7396 9.90104 43.168 10.0742C43.6465 10.2656 43.9883 10.4753 44.1934 10.7031C44.3984 10.931 44.501 11.209 44.501 11.5371C44.501 12.002 44.2959 12.3757 43.8857 12.6582C43.4801 12.9408 42.9492 13.082 42.293 13.082ZM47.625 13.082C47.1602 13.082 46.7386 12.9818 46.3604 12.7812C45.9867 12.5762 45.6882 12.2959 45.4648 11.9404C45.2461 11.5804 45.1367 11.168 45.1367 10.7031C45.1367 10.2383 45.2529 9.80762 45.4854 9.41113C45.7223 9.01465 46.0482 8.69564 46.4629 8.4541C46.8776 8.20801 47.3516 8.08496 47.8848 8.08496C48.3678 8.08496 48.778 8.18294 49.1152 8.37891C49.4525 8.57031 49.6211 8.81185 49.6211 9.10352C49.6211 9.28581 49.5618 9.4248 49.4434 9.52051C49.3294 9.61621 49.195 9.66406 49.04 9.66406C48.7803 9.66406 48.5296 9.55469 48.2881 9.33594L47.4609 8.625L48.0352 8.74805C47.7207 8.68424 47.4245 8.78906 47.1465 9.0625C46.8685 9.33138 46.7295 9.74837 46.7295 10.3135C46.7295 10.8695 46.8639 11.291 47.1328 11.5781C47.4062 11.8607 47.7435 12.002 48.1445 12.002C48.3451 12.002 48.5456 11.9587 48.7461 11.8721C48.9466 11.7809 49.1471 11.6191 49.3477 11.3867L49.6826 11.708C49.473 12.1637 49.1836 12.5078 48.8145 12.7402C48.4453 12.9681 48.0488 13.082 47.625 13.082ZM50.0449 13L50.0107 12.4941L50.6943 12.3027C50.6989 12.2526 50.7057 12.1204 50.7148 11.9062C50.7285 11.6875 50.7399 11.4551 50.749 11.209L50.7627 10.3818C50.7627 10.1722 50.7536 9.98535 50.7354 9.82129C50.7217 9.65267 50.6989 9.4681 50.667 9.26758L49.9697 9.11719V8.61133L51.8975 8.10547L52.1982 8.29688L52.1504 9.17188L52.1846 9.17871C52.3896 8.77311 52.5993 8.4974 52.8135 8.35156C53.0322 8.20117 53.2578 8.12598 53.4902 8.12598C53.6862 8.12598 53.8594 8.18294 54.0098 8.29688C54.1647 8.40625 54.2422 8.58171 54.2422 8.82324C54.2422 9.06022 54.1602 9.24935 53.9961 9.39062C53.8366 9.52734 53.6475 9.5957 53.4287 9.5957C53.251 9.5957 53.0892 9.5638 52.9434 9.5C52.8021 9.4362 52.6494 9.31999 52.4854 9.15137L52.8135 9.17871C52.5811 9.3291 52.3851 9.56608 52.2256 9.88965L52.2393 10.751C52.2438 11.1611 52.2507 11.5052 52.2598 11.7832C52.2689 12.0612 52.278 12.2344 52.2871 12.3027L53.2441 12.4736L53.2168 13H50.0449ZM54.5635 13L54.5361 12.4736L55.2607 12.3027C55.2653 12.2572 55.2721 12.1296 55.2812 11.9199C55.2949 11.7057 55.3063 11.4688 55.3154 11.209L55.3223 10.3955C55.3223 10.1722 55.3154 9.97624 55.3018 9.80762C55.2881 9.639 55.2653 9.45898 55.2334 9.26758L54.502 9.11719V8.61133L56.5459 8.10547L56.8535 8.29688C56.8353 8.53385 56.8193 8.77083 56.8057 9.00781C56.792 9.24479 56.7852 9.51139 56.7852 9.80762V11.209C56.7852 11.446 56.7897 11.6738 56.7988 11.8926C56.8125 12.1113 56.8285 12.248 56.8467 12.3027L57.5713 12.4736L57.5439 13H54.5635ZM56.0811 7.25098C55.7757 7.25098 55.5365 7.15983 55.3633 6.97754C55.1901 6.79069 55.1035 6.5765 55.1035 6.33496C55.1035 6.08887 55.1901 5.87467 55.3633 5.69238C55.5365 5.51009 55.7757 5.41895 56.0811 5.41895C56.3864 5.41895 56.6211 5.51009 56.7852 5.69238C56.9492 5.87467 57.0312 6.08887 57.0312 6.33496C57.0312 6.5765 56.9492 6.79069 56.7852 6.97754C56.6211 7.15983 56.3864 7.25098 56.0811 7.25098ZM57.8652 15.4131L57.8311 14.9004L58.5078 14.709C58.5124 14.6452 58.5192 14.4948 58.5283 14.2578C58.5374 14.0254 58.5465 13.752 58.5557 13.4375C58.5648 13.1276 58.5716 12.8223 58.5762 12.5215L58.5967 10.3887C58.5967 10.1745 58.5898 9.98307 58.5762 9.81445C58.5625 9.64128 58.5397 9.45898 58.5078 9.26758L57.8037 9.11719V8.61133L59.7656 8.10547L60.0801 8.29688L59.998 8.97363L60.0322 9.00098C60.2008 8.71842 60.415 8.49512 60.6748 8.33105C60.9391 8.16699 61.2194 8.08496 61.5156 8.08496C61.8665 8.08496 62.1947 8.17611 62.5 8.3584C62.8053 8.53613 63.0514 8.7959 63.2383 9.1377C63.4297 9.47949 63.5254 9.89421 63.5254 10.3818C63.5254 10.8604 63.4137 11.3047 63.1904 11.7148C62.9717 12.1204 62.6572 12.4486 62.2471 12.6992C61.8415 12.9499 61.3607 13.0752 60.8047 13.0752C60.5677 13.0752 60.3148 13.0342 60.0459 12.9521V13.6289C60.0459 13.8704 60.0505 14.0938 60.0596 14.2988C60.0687 14.5039 60.0824 14.6406 60.1006 14.709L61.0029 14.8867L60.9688 15.4131H57.8652ZM60.8184 12.2891C61.1419 12.2891 61.4108 12.1683 61.625 11.9268C61.8392 11.6852 61.9463 11.2865 61.9463 10.7305C61.9508 10.1608 61.8392 9.75521 61.6113 9.51367C61.3835 9.27214 61.1305 9.15137 60.8525 9.15137C60.7021 9.15137 60.5563 9.1901 60.415 9.26758C60.2738 9.34505 60.1507 9.44759 60.0459 9.5752V12.0635C60.2783 12.2139 60.5358 12.2891 60.8184 12.2891ZM68.0371 12.0635C67.9232 12.387 67.7204 12.6423 67.4287 12.8291C67.137 13.016 66.8112 13.1094 66.4512 13.1094C65.9316 13.1094 65.5078 12.9613 65.1797 12.665C64.8561 12.3688 64.6943 11.9222 64.6943 11.3252L64.7285 8.88477H63.9629V8.54297L65.8906 7.02539H66.2256L66.1982 8.59766L66.1777 11.1953C66.1777 11.4961 66.2507 11.7103 66.3965 11.8379C66.5469 11.9655 66.7542 12.0293 67.0186 12.0293C67.2874 12.0293 67.5312 11.9336 67.75 11.7422L68.0371 12.0635ZM65.6787 8.88477V8.18066H67.7432V8.88477H65.6787ZM68.1533 13L68.126 12.4736L68.8506 12.3027C68.8551 12.2572 68.862 12.1296 68.8711 11.9199C68.8848 11.7057 68.8962 11.4688 68.9053 11.209L68.9121 10.3955C68.9121 10.1722 68.9053 9.97624 68.8916 9.80762C68.8779 9.639 68.8551 9.45898 68.8232 9.26758L68.0918 9.11719V8.61133L70.1357 8.10547L70.4434 8.29688C70.4251 8.53385 70.4092 8.77083 70.3955 9.00781C70.3818 9.24479 70.375 9.51139 70.375 9.80762V11.209C70.375 11.446 70.3796 11.6738 70.3887 11.8926C70.4023 12.1113 70.4183 12.248 70.4365 12.3027L71.1611 12.4736L71.1338 13H68.1533ZM69.6709 7.25098C69.3656 7.25098 69.1263 7.15983 68.9531 6.97754C68.7799 6.79069 68.6934 6.5765 68.6934 6.33496C68.6934 6.08887 68.7799 5.87467 68.9531 5.69238C69.1263 5.51009 69.3656 5.41895 69.6709 5.41895C69.9762 5.41895 70.2109 5.51009 70.375 5.69238C70.5391 5.87467 70.6211 6.08887 70.6211 6.33496C70.6211 6.5765 70.5391 6.79069 70.375 6.97754C70.2109 7.15983 69.9762 7.25098 69.6709 7.25098ZM74.2646 13.082C73.7542 13.082 73.3031 12.9795 72.9111 12.7744C72.5192 12.5648 72.2116 12.2777 71.9883 11.9131C71.7695 11.5439 71.6602 11.1201 71.6602 10.6416C71.6602 10.0993 71.7855 9.639 72.0361 9.26074C72.2868 8.87793 72.6126 8.58626 73.0137 8.38574C73.4193 8.18522 73.8522 8.08496 74.3125 8.08496C74.8001 8.08496 75.2308 8.18978 75.6045 8.39941C75.9782 8.60449 76.2699 8.8916 76.4795 9.26074C76.6891 9.62988 76.7939 10.0537 76.7939 10.5322C76.7939 11.0107 76.68 11.4437 76.4521 11.8311C76.2288 12.2139 75.9258 12.5192 75.543 12.7471C75.1602 12.9704 74.734 13.082 74.2646 13.082ZM74.374 12.3711C74.6429 12.3711 74.8503 12.2412 74.9961 11.9814C75.1419 11.7217 75.2148 11.3571 75.2148 10.8877C75.2148 10.2542 75.1146 9.74154 74.9141 9.34961C74.7181 8.95768 74.4583 8.76172 74.1348 8.76172C73.8704 8.76172 73.6585 8.90072 73.499 9.17871C73.3441 9.45215 73.2666 9.8304 73.2666 10.3135C73.2666 10.9014 73.3714 11.3913 73.5811 11.7832C73.7952 12.1751 74.0596 12.3711 74.374 12.3711ZM77.3682 13L77.334 12.4941L78.0107 12.3027C78.0199 12.2526 78.029 12.1227 78.0381 11.9131C78.0518 11.6989 78.0609 11.4642 78.0654 11.209L78.0791 10.375C78.0791 10.1471 78.0723 9.95345 78.0586 9.79395C78.0449 9.63444 78.0221 9.45898 77.9902 9.26758L77.2861 9.11719V8.61133L79.248 8.10547L79.5557 8.29688L79.4941 8.95312L79.5283 8.9668C79.9795 8.37891 80.5195 8.08496 81.1484 8.08496C81.6224 8.08496 82.0166 8.25814 82.3311 8.60449C82.6455 8.95085 82.8027 9.4362 82.8027 10.0605V11.1953C82.8027 11.4414 82.8073 11.6738 82.8164 11.8926C82.8255 12.1068 82.8392 12.2435 82.8574 12.3027L83.5342 12.4941L83.5 13H80.7178L80.6904 12.4941L81.2988 12.3027C81.3125 12.1934 81.3239 12.0316 81.333 11.8174C81.3467 11.5986 81.3535 11.3936 81.3535 11.2021V10.2998C81.3535 9.88509 81.2624 9.58887 81.0801 9.41113C80.9023 9.22884 80.6927 9.1377 80.4512 9.1377C80.0866 9.1377 79.7812 9.29264 79.5352 9.60254V11.209C79.5352 11.4505 79.5397 11.6784 79.5488 11.8926C79.5579 12.1068 79.5716 12.2435 79.5898 12.3027L80.2461 12.4941L80.2119 13H77.3682ZM85.8105 13.082C85.4961 13.082 85.1862 13.0479 84.8809 12.9795C84.5801 12.9111 84.3249 12.8223 84.1152 12.7129L84.0605 11.4141H84.792L85.0244 12.207C85.2979 12.3711 85.585 12.4531 85.8857 12.4531C86.1045 12.4531 86.2708 12.4098 86.3848 12.3232C86.4987 12.2321 86.5557 12.1136 86.5557 11.9678C86.5557 11.8037 86.4919 11.667 86.3643 11.5576C86.2412 11.4437 85.9814 11.3115 85.585 11.1611C85.0518 10.9652 84.6781 10.751 84.4639 10.5186C84.2497 10.2816 84.1426 9.98535 84.1426 9.62988C84.1426 9.17871 84.3454 8.80957 84.751 8.52246C85.1611 8.23079 85.6943 8.08496 86.3506 8.08496C86.5921 8.08496 86.8337 8.10775 87.0752 8.15332C87.3167 8.19889 87.5173 8.25814 87.6768 8.33105L87.7998 9.61621H87.082L86.8428 8.83008C86.7699 8.78906 86.6787 8.75488 86.5693 8.72754C86.4645 8.7002 86.3665 8.68652 86.2754 8.68652C86.0612 8.68652 85.888 8.73438 85.7559 8.83008C85.6237 8.92578 85.5576 9.05111 85.5576 9.20605C85.5576 9.37923 85.6374 9.52507 85.7969 9.64355C85.9609 9.75749 86.2572 9.90104 86.6855 10.0742C87.1641 10.2656 87.5059 10.4753 87.7109 10.7031C87.916 10.931 88.0186 11.209 88.0186 11.5371C88.0186 12.002 87.8135 12.3757 87.4033 12.6582C86.9977 12.9408 86.4668 13.082 85.8105 13.082ZM92.4756 13.082C92.1338 13.082 91.8398 13.0114 91.5938 12.8701C91.3522 12.7243 91.1654 12.5488 91.0332 12.3438C90.9056 12.1341 90.8418 11.9382 90.8418 11.7559C90.8418 11.2227 91.179 10.8581 91.8535 10.6621L93.5762 10.1631V9.78711C93.5762 9.55469 93.4691 9.34733 93.2549 9.16504C93.0452 8.97819 92.8083 8.88477 92.5439 8.88477C92.4255 8.88477 92.3411 8.91439 92.291 8.97363C92.2454 9.02832 92.2181 9.12858 92.209 9.27441L92.1543 9.96484C91.7852 10.0423 91.4798 10.0309 91.2383 9.93066C91.0013 9.8304 90.8828 9.66406 90.8828 9.43164C90.8828 9.28581 90.9557 9.13997 91.1016 8.99414C91.252 8.84375 91.4388 8.70475 91.6621 8.57715C91.8854 8.44499 92.111 8.33561 92.3389 8.24902C92.5713 8.16243 92.7695 8.10775 92.9336 8.08496C93.5944 8.08496 94.1162 8.23307 94.499 8.5293C94.8864 8.82552 95.0824 9.22656 95.0869 9.73242L95.0527 11.2295C95.0527 11.6123 95.0801 11.8652 95.1348 11.9883L95.8594 12.1182V12.6035L95.1279 12.9111C94.8545 13.0251 94.6221 13.082 94.4307 13.082C94.1436 13.082 93.9408 12.9362 93.8223 12.6445L93.624 12.1387L93.8564 12.1797C93.3916 12.7812 92.9313 13.082 92.4756 13.082ZM93.0566 12.0771C93.2526 12.0771 93.4303 11.9997 93.5898 11.8447V10.7852L92.8857 10.9082C92.5439 10.9538 92.373 11.1224 92.373 11.4141C92.373 11.5827 92.4414 11.7354 92.5781 11.8721C92.7148 12.0088 92.8743 12.0771 93.0566 12.0771ZM100.057 12.0635C99.9427 12.387 99.7399 12.6423 99.4482 12.8291C99.1566 13.016 98.8307 13.1094 98.4707 13.1094C97.9512 13.1094 97.5273 12.9613 97.1992 12.665C96.8757 12.3688 96.7139 11.9222 96.7139 11.3252L96.748 8.88477H95.9824V8.54297L97.9102 7.02539H98.2451L98.2178 8.59766L98.1973 11.1953C98.1973 11.4961 98.2702 11.7103 98.416 11.8379C98.5664 11.9655 98.7738 12.0293 99.0381 12.0293C99.307 12.0293 99.5508 11.9336 99.7695 11.7422L100.057 12.0635ZM97.6982 8.88477V8.18066H99.7627V8.88477H97.6982ZM104.206 13.082C103.864 13.082 103.57 13.0114 103.324 12.8701C103.083 12.7243 102.896 12.5488 102.764 12.3438C102.636 12.1341 102.572 11.9382 102.572 11.7559C102.572 11.2227 102.91 10.8581 103.584 10.6621L105.307 10.1631V9.78711C105.307 9.55469 105.2 9.34733 104.985 9.16504C104.776 8.97819 104.539 8.88477 104.274 8.88477C104.156 8.88477 104.072 8.91439 104.021 8.97363C103.976 9.02832 103.949 9.12858 103.939 9.27441L103.885 9.96484C103.516 10.0423 103.21 10.0309 102.969 9.93066C102.732 9.8304 102.613 9.66406 102.613 9.43164C102.613 9.28581 102.686 9.13997 102.832 8.99414C102.982 8.84375 103.169 8.70475 103.393 8.57715C103.616 8.44499 103.841 8.33561 104.069 8.24902C104.302 8.16243 104.5 8.10775 104.664 8.08496C105.325 8.08496 105.847 8.23307 106.229 8.5293C106.617 8.82552 106.813 9.22656 106.817 9.73242L106.783 11.2295C106.783 11.6123 106.811 11.8652 106.865 11.9883L107.59 12.1182V12.6035L106.858 12.9111C106.585 13.0251 106.353 13.082 106.161 13.082C105.874 13.082 105.671 12.9362 105.553 12.6445L105.354 12.1387L105.587 12.1797C105.122 12.7812 104.662 13.082 104.206 13.082ZM104.787 12.0771C104.983 12.0771 105.161 11.9997 105.32 11.8447V10.7852L104.616 10.9082C104.274 10.9538 104.104 11.1224 104.104 11.4141C104.104 11.5827 104.172 11.7354 104.309 11.8721C104.445 12.0088 104.605 12.0771 104.787 12.0771ZM113.865 13.0957C113.154 13.0957 112.528 12.9727 111.985 12.7266C111.448 12.4759 111.026 12.1159 110.721 11.6465C110.42 11.1725 110.27 10.6029 110.27 9.9375C110.27 9.20833 110.436 8.58626 110.769 8.07129C111.106 7.55176 111.566 7.15527 112.149 6.88184C112.733 6.60384 113.4 6.46484 114.152 6.46484C114.485 6.46484 114.818 6.5013 115.15 6.57422C115.488 6.64258 115.766 6.73145 115.984 6.84082L116.032 8.39941L115.328 8.42676L114.979 7.41504C114.838 7.33301 114.683 7.27832 114.515 7.25098C114.346 7.21908 114.189 7.20312 114.043 7.20312C113.419 7.20312 112.933 7.4196 112.587 7.85254C112.241 8.28092 112.067 8.87109 112.067 9.62305C112.067 10.1836 112.161 10.6667 112.348 11.0723C112.535 11.4779 112.785 11.79 113.1 12.0088C113.414 12.2275 113.765 12.3369 114.152 12.3369C114.248 12.3369 114.364 12.3255 114.501 12.3027C114.642 12.2754 114.768 12.2321 114.877 12.1729L114.638 12.7676V11.5986C114.638 11.4528 114.631 11.2933 114.617 11.1201C114.604 10.9469 114.592 10.8102 114.583 10.71L113.797 10.5391L113.831 9.95801H116.647L116.682 10.5186L116.121 10.7031C116.117 10.7852 116.114 10.9036 116.114 11.0586C116.119 11.2135 116.121 11.3685 116.121 11.5234C116.121 11.651 116.123 11.7969 116.128 11.9609C116.137 12.125 116.146 12.3096 116.155 12.5146C115.836 12.7106 115.474 12.8564 115.068 12.9521C114.667 13.0479 114.266 13.0957 113.865 13.0957ZM117.229 13L117.194 12.4736L117.905 12.3027C117.914 12.2161 117.924 12.0703 117.933 11.8652C117.942 11.6556 117.951 11.4232 117.96 11.168C117.969 10.9128 117.974 10.6689 117.974 10.4365V9.04883C117.974 8.54297 117.967 8.05306 117.953 7.5791C117.944 7.10514 117.928 6.74284 117.905 6.49219L117.099 6.38281L117.078 5.89746L119.218 5.34375L119.532 5.54199C119.514 5.84733 119.5 6.14355 119.491 6.43066C119.482 6.71777 119.475 7.04362 119.471 7.4082C119.471 7.77279 119.471 8.22168 119.471 8.75488L119.457 10.3477C119.457 10.8672 119.459 11.3024 119.464 11.6533C119.473 12.0042 119.484 12.2207 119.498 12.3027L120.216 12.4736L120.195 13H117.229ZM122.444 13.082C122.103 13.082 121.809 13.0114 121.562 12.8701C121.321 12.7243 121.134 12.5488 121.002 12.3438C120.874 12.1341 120.811 11.9382 120.811 11.7559C120.811 11.2227 121.148 10.8581 121.822 10.6621L123.545 10.1631V9.78711C123.545 9.55469 123.438 9.34733 123.224 9.16504C123.014 8.97819 122.777 8.88477 122.513 8.88477C122.394 8.88477 122.31 8.91439 122.26 8.97363C122.214 9.02832 122.187 9.12858 122.178 9.27441L122.123 9.96484C121.754 10.0423 121.449 10.0309 121.207 9.93066C120.97 9.8304 120.852 9.66406 120.852 9.43164C120.852 9.28581 120.924 9.13997 121.07 8.99414C121.221 8.84375 121.408 8.70475 121.631 8.57715C121.854 8.44499 122.08 8.33561 122.308 8.24902C122.54 8.16243 122.738 8.10775 122.902 8.08496C123.563 8.08496 124.085 8.23307 124.468 8.5293C124.855 8.82552 125.051 9.22656 125.056 9.73242L125.021 11.2295C125.021 11.6123 125.049 11.8652 125.104 11.9883L125.828 12.1182V12.6035L125.097 12.9111C124.823 13.0251 124.591 13.082 124.399 13.082C124.112 13.082 123.91 12.9362 123.791 12.6445L123.593 12.1387L123.825 12.1797C123.36 12.7812 122.9 13.082 122.444 13.082ZM123.025 12.0771C123.221 12.0771 123.399 11.9997 123.559 11.8447V10.7852L122.854 10.9082C122.513 10.9538 122.342 11.1224 122.342 11.4141C122.342 11.5827 122.41 11.7354 122.547 11.8721C122.684 12.0088 122.843 12.0771 123.025 12.0771ZM126.108 13L126.074 12.4941L126.751 12.3027C126.76 12.2526 126.769 12.1227 126.778 11.9131C126.792 11.6989 126.801 11.4642 126.806 11.209L126.819 10.375C126.819 10.1471 126.812 9.95345 126.799 9.79395C126.785 9.63444 126.762 9.45898 126.73 9.26758L126.026 9.11719V8.61133L127.988 8.10547L128.296 8.29688L128.234 8.95312L128.269 8.9668C128.72 8.37891 129.26 8.08496 129.889 8.08496C130.363 8.08496 130.757 8.25814 131.071 8.60449C131.386 8.95085 131.543 9.4362 131.543 10.0605V11.1953C131.543 11.4414 131.548 11.6738 131.557 11.8926C131.566 12.1068 131.579 12.2435 131.598 12.3027L132.274 12.4941L132.24 13H129.458L129.431 12.4941L130.039 12.3027C130.053 12.1934 130.064 12.0316 130.073 11.8174C130.087 11.5986 130.094 11.3936 130.094 11.2021V10.2998C130.094 9.88509 130.003 9.58887 129.82 9.41113C129.643 9.22884 129.433 9.1377 129.191 9.1377C128.827 9.1377 128.521 9.29264 128.275 9.60254V11.209C128.275 11.4505 128.28 11.6784 128.289 11.8926C128.298 12.1068 128.312 12.2435 128.33 12.3027L128.986 12.4941L128.952 13H126.108ZM135.262 13.082C134.797 13.082 134.375 12.9818 133.997 12.7812C133.623 12.5762 133.325 12.2959 133.102 11.9404C132.883 11.5804 132.773 11.168 132.773 10.7031C132.773 10.2383 132.89 9.80762 133.122 9.41113C133.359 9.01465 133.685 8.69564 134.1 8.4541C134.514 8.20801 134.988 8.08496 135.521 8.08496C136.005 8.08496 136.415 8.18294 136.752 8.37891C137.089 8.57031 137.258 8.81185 137.258 9.10352C137.258 9.28581 137.199 9.4248 137.08 9.52051C136.966 9.61621 136.832 9.66406 136.677 9.66406C136.417 9.66406 136.166 9.55469 135.925 9.33594L135.098 8.625L135.672 8.74805C135.357 8.68424 135.061 8.78906 134.783 9.0625C134.505 9.33138 134.366 9.74837 134.366 10.3135C134.366 10.8695 134.501 11.291 134.77 11.5781C135.043 11.8607 135.38 12.002 135.781 12.002C135.982 12.002 136.182 11.9587 136.383 11.8721C136.583 11.7809 136.784 11.6191 136.984 11.3867L137.319 11.708C137.11 12.1637 136.82 12.5078 136.451 12.7402C136.082 12.9681 135.686 13.082 135.262 13.082ZM140.32 13.082C139.837 13.082 139.409 12.9772 139.035 12.7676C138.666 12.5534 138.377 12.264 138.167 11.8994C137.957 11.5303 137.853 11.1156 137.853 10.6553C137.853 10.1494 137.971 9.70508 138.208 9.32227C138.445 8.9349 138.753 8.63184 139.131 8.41309C139.514 8.19434 139.922 8.08496 140.354 8.08496C140.997 8.08496 141.498 8.2832 141.858 8.67969C142.218 9.07617 142.398 9.5957 142.398 10.2383V10.5117H139.165V9.92383H141.291L141.106 10.2041V9.81445C141.106 9.47266 141.031 9.20378 140.881 9.00781C140.735 8.81185 140.53 8.71387 140.266 8.71387C140.001 8.71387 139.778 8.8278 139.596 9.05566C139.413 9.27897 139.322 9.62533 139.322 10.0947V10.3203C139.322 10.8262 139.459 11.234 139.732 11.5439C140.01 11.8538 140.38 12.0088 140.84 12.0088C141.09 12.0088 141.316 11.9632 141.517 11.8721C141.722 11.7809 141.92 11.626 142.111 11.4072L142.453 11.7354C142.248 12.1774 141.959 12.5124 141.585 12.7402C141.211 12.9681 140.79 13.082 140.32 13.082Z" fill="#0016A8"/>
<path d="M9.50001 17.0209C11.4947 17.0209 13.4076 16.2285 14.818 14.8181C16.2285 13.4077 17.0208 11.4947 17.0208 9.50008C17.0208 7.50543 16.2285 5.59248 14.818 4.18205C13.4076 2.77162 11.4947 1.97925 9.50001 1.97925C7.50536 1.97925 5.5924 2.77162 4.18197 4.18205C2.77154 5.59248 1.97917 7.50543 1.97917 9.50008C1.97917 11.4947 2.77154 13.4077 4.18197 14.8181C5.5924 16.2285 7.50536 17.0209 9.50001 17.0209Z" stroke="#2260FF" stroke-width="1.5" stroke-linecap="round" stroke-linejoin="round"/>
<path d="M12.7561 11.3803V7.61985M12.7561 11.3803L9.50001 13.2605L6.24309 11.3803M12.7561 11.3803V16.2767M12.7561 7.61985L9.50001 5.73964L6.24309 7.61985M12.7561 7.61985L16.9987 10.0344M6.24309 7.61985V11.3803M6.24309 7.61985V2.72339M6.24309 11.3803L2.00214 8.95143M13.7497 3.29497L9.50793 5.73964M5.24322 15.6972L9.49289 13.2605" stroke="#2260FF" stroke-width="1.5" stroke-linecap="round" stroke-linejoin="round"/>
</svg>
