<svg width="140" height="21" viewBox="0 0 140 21" fill="none" xmlns="http://www.w3.org/2000/svg">
<path d="M23.5195 7.56055H25.8643L28.1611 12.3867H27.8262L29.877 7.56055H32.2354L32.2695 8.12109L31.5723 8.29199C31.5677 8.40592 31.5677 8.5791 31.5723 8.81152C31.5768 9.03939 31.5837 9.32194 31.5928 9.65918L31.6543 11.5732C31.6725 12.029 31.6908 12.4118 31.709 12.7217C31.7318 13.0316 31.75 13.2139 31.7637 13.2686L32.4678 13.4463L32.4404 14H29.3984L29.3643 13.4463L30.0752 13.2686C30.098 13.1182 30.1025 12.5531 30.0889 11.5732L30.0547 7.88184H30.5811L27.9629 14.0273H27.2451L24.3057 7.875H25.0234L25.0303 11.6621C25.0303 12.2181 25.0326 12.6146 25.0371 12.8516C25.0417 13.0885 25.0508 13.2275 25.0645 13.2686L25.8301 13.4463L25.7959 14H23.376L23.3418 13.4463L24.1074 13.2686C24.1165 13.2048 24.1234 13.0179 24.1279 12.708C24.137 12.3936 24.1439 12.0632 24.1484 11.7168L24.1826 9.67969C24.1917 9.3151 24.194 9.01888 24.1895 8.79102C24.1849 8.55859 24.1826 8.39453 24.1826 8.29883L23.4922 8.12109L23.5195 7.56055ZM35.6738 14.082C35.1908 14.082 34.7624 13.9772 34.3887 13.7676C34.0195 13.5534 33.7301 13.264 33.5205 12.8994C33.3109 12.5303 33.2061 12.1156 33.2061 11.6553C33.2061 11.1494 33.3245 10.7051 33.5615 10.3223C33.7985 9.9349 34.1061 9.63184 34.4844 9.41309C34.8672 9.19434 35.2751 9.08496 35.708 9.08496C36.3506 9.08496 36.8519 9.2832 37.2119 9.67969C37.5719 10.0762 37.752 10.5957 37.752 11.2383V11.5117H34.5186V10.9238H36.6445L36.46 11.2041V10.8145C36.46 10.4727 36.3848 10.2038 36.2344 10.0078C36.0885 9.81185 35.8835 9.71387 35.6191 9.71387C35.3548 9.71387 35.1315 9.8278 34.9492 10.0557C34.7669 10.279 34.6758 10.6253 34.6758 11.0947V11.3203C34.6758 11.8262 34.8125 12.234 35.0859 12.5439C35.3639 12.8538 35.7331 13.0088 36.1934 13.0088C36.444 13.0088 36.6696 12.9632 36.8701 12.8721C37.0752 12.7809 37.2734 12.626 37.4648 12.4072L37.8066 12.7354C37.6016 13.1774 37.3122 13.5124 36.9385 13.7402C36.5648 13.9681 36.1432 14.082 35.6738 14.082ZM42.2568 14.1436L41.9492 13.9795L41.9629 13.2549L41.9287 13.2412C41.7419 13.5648 41.5345 13.7904 41.3066 13.918C41.0833 14.0456 40.8555 14.1094 40.623 14.1094C40.2402 14.1094 39.8825 14.0114 39.5498 13.8154C39.2217 13.6195 38.9574 13.346 38.7568 12.9951C38.5563 12.6396 38.4561 12.2227 38.4561 11.7441C38.4561 11.2018 38.5882 10.7347 38.8525 10.3428C39.1169 9.94629 39.4541 9.64095 39.8643 9.42676C40.2744 9.20801 40.7005 9.09863 41.1426 9.09863C41.2793 9.09863 41.4183 9.1123 41.5596 9.13965C41.7008 9.16243 41.8171 9.19889 41.9082 9.24902C41.9082 9.05306 41.9059 8.84115 41.9014 8.61328C41.8968 8.38086 41.89 8.16439 41.8809 7.96387C41.8763 7.75879 41.8717 7.60384 41.8672 7.49902L41.0469 7.37598L41.0264 6.89746L43.1592 6.34375L43.46 6.54199C43.4372 6.99772 43.4167 7.41699 43.3984 7.7998C43.3802 8.17806 43.3711 8.57682 43.3711 8.99609L43.3574 11.5459C43.3574 11.9014 43.3643 12.1862 43.3779 12.4004C43.3962 12.6146 43.4121 12.8128 43.4258 12.9951L44.1641 13.1523V13.6309L42.2568 14.1436ZM41.1699 13.0156C41.2793 13.0156 41.4046 12.9814 41.5459 12.9131C41.6917 12.8447 41.8171 12.7308 41.9219 12.5713V10.1104C41.8262 9.9873 41.7122 9.90072 41.5801 9.85059C41.4525 9.7959 41.3203 9.76855 41.1836 9.76855C40.8464 9.76855 40.5684 9.91211 40.3496 10.1992C40.1354 10.4818 40.0283 10.8669 40.0283 11.3545C40.0283 11.8968 40.14 12.3092 40.3633 12.5918C40.5911 12.8743 40.86 13.0156 41.1699 13.0156ZM44.4307 14L44.4033 13.4736L45.1279 13.3027C45.1325 13.2572 45.1393 13.1296 45.1484 12.9199C45.1621 12.7057 45.1735 12.4688 45.1826 12.209L45.1895 11.3955C45.1895 11.1722 45.1826 10.9762 45.1689 10.8076C45.1553 10.639 45.1325 10.459 45.1006 10.2676L44.3691 10.1172V9.61133L46.4131 9.10547L46.7207 9.29688C46.7025 9.53385 46.6865 9.77083 46.6729 10.0078C46.6592 10.2448 46.6523 10.5114 46.6523 10.8076V12.209C46.6523 12.446 46.6569 12.6738 46.666 12.8926C46.6797 13.1113 46.6956 13.248 46.7139 13.3027L47.4385 13.4736L47.4111 14H44.4307ZM45.9482 8.25098C45.6429 8.25098 45.4036 8.15983 45.2305 7.97754C45.0573 7.79069 44.9707 7.5765 44.9707 7.33496C44.9707 7.08887 45.0573 6.87467 45.2305 6.69238C45.4036 6.51009 45.6429 6.41895 45.9482 6.41895C46.2536 6.41895 46.4883 6.51009 46.6523 6.69238C46.8164 6.87467 46.8984 7.08887 46.8984 7.33496C46.8984 7.5765 46.8164 7.79069 46.6523 7.97754C46.4883 8.15983 46.2536 8.25098 45.9482 8.25098ZM50.4258 14.082C49.9609 14.082 49.5394 13.9818 49.1611 13.7812C48.7874 13.5762 48.4889 13.2959 48.2656 12.9404C48.0469 12.5804 47.9375 12.168 47.9375 11.7031C47.9375 11.2383 48.0537 10.8076 48.2861 10.4111C48.5231 10.0146 48.849 9.69564 49.2637 9.4541C49.6784 9.20801 50.1523 9.08496 50.6855 9.08496C51.1686 9.08496 51.5788 9.18294 51.916 9.37891C52.2533 9.57031 52.4219 9.81185 52.4219 10.1035C52.4219 10.2858 52.3626 10.4248 52.2441 10.5205C52.1302 10.6162 51.9958 10.6641 51.8408 10.6641C51.5811 10.6641 51.3304 10.5547 51.0889 10.3359L50.2617 9.625L50.8359 9.74805C50.5215 9.68424 50.2253 9.78906 49.9473 10.0625C49.6693 10.3314 49.5303 10.7484 49.5303 11.3135C49.5303 11.8695 49.6647 12.291 49.9336 12.5781C50.207 12.8607 50.5443 13.002 50.9453 13.002C51.1458 13.002 51.3464 12.9587 51.5469 12.8721C51.7474 12.7809 51.9479 12.6191 52.1484 12.3867L52.4834 12.708C52.2738 13.1637 51.9844 13.5078 51.6152 13.7402C51.2461 13.9681 50.8496 14.082 50.4258 14.082ZM52.7979 14L52.7705 13.4736L53.4951 13.3027C53.4997 13.2572 53.5065 13.1296 53.5156 12.9199C53.5293 12.7057 53.5407 12.4688 53.5498 12.209L53.5566 11.3955C53.5566 11.1722 53.5498 10.9762 53.5361 10.8076C53.5225 10.639 53.4997 10.459 53.4678 10.2676L52.7363 10.1172V9.61133L54.7803 9.10547L55.0879 9.29688C55.0697 9.53385 55.0537 9.77083 55.04 10.0078C55.0264 10.2448 55.0195 10.5114 55.0195 10.8076V12.209C55.0195 12.446 55.0241 12.6738 55.0332 12.8926C55.0469 13.1113 55.0628 13.248 55.0811 13.3027L55.8057 13.4736L55.7783 14H52.7979ZM54.3154 8.25098C54.0101 8.25098 53.7708 8.15983 53.5977 7.97754C53.4245 7.79069 53.3379 7.5765 53.3379 7.33496C53.3379 7.08887 53.4245 6.87467 53.5977 6.69238C53.7708 6.51009 54.0101 6.41895 54.3154 6.41895C54.6208 6.41895 54.8555 6.51009 55.0195 6.69238C55.1836 6.87467 55.2656 7.08887 55.2656 7.33496C55.2656 7.5765 55.1836 7.79069 55.0195 7.97754C54.8555 8.15983 54.6208 8.25098 54.3154 8.25098ZM56.1338 14L56.0996 13.4941L56.7764 13.3027C56.7855 13.2526 56.7946 13.1227 56.8037 12.9131C56.8174 12.6989 56.8265 12.4642 56.8311 12.209L56.8447 11.375C56.8447 11.1471 56.8379 10.9535 56.8242 10.7939C56.8105 10.6344 56.7878 10.459 56.7559 10.2676L56.0518 10.1172V9.61133L58.0137 9.10547L58.3213 9.29688L58.2598 9.95312L58.2939 9.9668C58.7451 9.37891 59.2852 9.08496 59.9141 9.08496C60.388 9.08496 60.7822 9.25814 61.0967 9.60449C61.4111 9.95085 61.5684 10.4362 61.5684 11.0605V12.1953C61.5684 12.4414 61.5729 12.6738 61.582 12.8926C61.5911 13.1068 61.6048 13.2435 61.623 13.3027L62.2998 13.4941L62.2656 14H59.4834L59.4561 13.4941L60.0645 13.3027C60.0781 13.1934 60.0895 13.0316 60.0986 12.8174C60.1123 12.5986 60.1191 12.3936 60.1191 12.2021V11.2998C60.1191 10.8851 60.028 10.5889 59.8457 10.4111C59.668 10.2288 59.4583 10.1377 59.2168 10.1377C58.8522 10.1377 58.5469 10.2926 58.3008 10.6025V12.209C58.3008 12.4505 58.3053 12.6784 58.3145 12.8926C58.3236 13.1068 58.3372 13.2435 58.3555 13.3027L59.0117 13.4941L58.9775 14H56.1338ZM65.2734 14.082C64.7904 14.082 64.362 13.9772 63.9883 13.7676C63.6191 13.5534 63.3298 13.264 63.1201 12.8994C62.9105 12.5303 62.8057 12.1156 62.8057 11.6553C62.8057 11.1494 62.9242 10.7051 63.1611 10.3223C63.3981 9.9349 63.7057 9.63184 64.084 9.41309C64.4668 9.19434 64.8747 9.08496 65.3076 9.08496C65.9502 9.08496 66.4515 9.2832 66.8115 9.67969C67.1715 10.0762 67.3516 10.5957 67.3516 11.2383V11.5117H64.1182V10.9238H66.2441L66.0596 11.2041V10.8145C66.0596 10.4727 65.9844 10.2038 65.834 10.0078C65.6882 9.81185 65.4831 9.71387 65.2188 9.71387C64.9544 9.71387 64.7311 9.8278 64.5488 10.0557C64.3665 10.279 64.2754 10.6253 64.2754 11.0947V11.3203C64.2754 11.8262 64.4121 12.234 64.6855 12.5439C64.9635 12.8538 65.3327 13.0088 65.793 13.0088C66.0436 13.0088 66.2692 12.9632 66.4697 12.8721C66.6748 12.7809 66.873 12.626 67.0645 12.4072L67.4062 12.7354C67.2012 13.1774 66.9118 13.5124 66.5381 13.7402C66.1644 13.9681 65.7428 14.082 65.2734 14.082ZM70.2705 14L70.2432 13.4463L70.9473 13.2617C70.9473 13.2025 70.9495 13.0726 70.9541 12.8721C70.9587 12.6715 70.9632 12.4505 70.9678 12.209C70.9723 11.9674 70.9746 11.7533 70.9746 11.5664V10.001C70.9746 9.55436 70.9655 9.16927 70.9473 8.8457C70.9336 8.52214 70.9154 8.33984 70.8926 8.29883L70.1953 8.12109L70.2295 7.56055H73.1074C73.9551 7.56055 74.5817 7.69727 74.9873 7.9707C75.3975 8.23958 75.6025 8.66113 75.6025 9.23535C75.6025 9.59993 75.4909 9.9235 75.2676 10.2061C75.0488 10.484 74.7458 10.7028 74.3584 10.8623C73.971 11.0218 73.5267 11.1016 73.0254 11.1016H72.2939V10.4521H72.7998C73.1553 10.4521 73.4424 10.3405 73.6611 10.1172C73.8844 9.89388 73.9961 9.59766 73.9961 9.22852C73.9961 8.53581 73.6383 8.18945 72.9229 8.18945H72.5195C72.5104 8.23503 72.5036 8.43555 72.499 8.79102C72.4945 9.14193 72.4922 9.52018 72.4922 9.92578V11.5664C72.4922 11.7533 72.4945 11.9606 72.499 12.1885C72.5036 12.4118 72.5081 12.6214 72.5127 12.8174C72.5218 13.0133 72.5286 13.1615 72.5332 13.2617L73.1416 13.4463L73.1143 14H70.2705ZM76.04 14.1299C75.4157 14.1299 74.8893 13.9818 74.4609 13.6855C74.0371 13.3893 73.6816 12.9199 73.3945 12.2773L72.793 10.9238L74.0303 10.6367L75.3428 12.4551C75.7712 13.0475 76.2451 13.4121 76.7646 13.5488L76.7578 14.0615C76.5299 14.1071 76.2907 14.1299 76.04 14.1299ZM79.5879 14.082C79.1048 14.082 78.6764 13.9772 78.3027 13.7676C77.9336 13.5534 77.6442 13.264 77.4346 12.8994C77.2249 12.5303 77.1201 12.1156 77.1201 11.6553C77.1201 11.1494 77.2386 10.7051 77.4756 10.3223C77.7126 9.9349 78.0202 9.63184 78.3984 9.41309C78.7812 9.19434 79.1891 9.08496 79.6221 9.08496C80.2646 9.08496 80.766 9.2832 81.126 9.67969C81.486 10.0762 81.666 10.5957 81.666 11.2383V11.5117H78.4326V10.9238H80.5586L80.374 11.2041V10.8145C80.374 10.4727 80.2988 10.2038 80.1484 10.0078C80.0026 9.81185 79.7975 9.71387 79.5332 9.71387C79.2689 9.71387 79.0456 9.8278 78.8633 10.0557C78.681 10.279 78.5898 10.6253 78.5898 11.0947V11.3203C78.5898 11.8262 78.7266 12.234 79 12.5439C79.278 12.8538 79.6471 13.0088 80.1074 13.0088C80.3581 13.0088 80.5837 12.9632 80.7842 12.8721C80.9893 12.7809 81.1875 12.626 81.3789 12.4072L81.7207 12.7354C81.5156 13.1774 81.2262 13.5124 80.8525 13.7402C80.4788 13.9681 80.0573 14.082 79.5879 14.082ZM82.2129 14L82.1787 13.4941L82.8623 13.3027C82.8669 13.2526 82.8737 13.1227 82.8828 12.9131C82.8965 12.6989 82.9079 12.4642 82.917 12.209L82.9307 11.3818C82.9261 11.1722 82.917 10.9854 82.9033 10.8213C82.8896 10.6527 82.8669 10.4681 82.835 10.2676L82.1377 10.1172V9.61133L84.0928 9.10547L84.4072 9.29688L84.3389 9.93945L84.373 9.95312C84.6055 9.65234 84.8493 9.43359 85.1045 9.29688C85.3643 9.1556 85.6331 9.08496 85.9111 9.08496C86.3441 9.08496 86.7246 9.24674 87.0527 9.57031C87.3854 9.89388 87.5518 10.3906 87.5518 11.0605L87.5654 12.1953C87.5654 12.4414 87.57 12.6738 87.5791 12.8926C87.5882 13.1068 87.6019 13.2435 87.6201 13.3027L88.2012 13.4941L88.1738 14H85.542L85.5078 13.4941L86.0615 13.3027C86.0752 13.1934 86.0866 13.0316 86.0957 12.8174C86.1048 12.5986 86.1094 12.3936 86.1094 12.2021L86.0957 11.1768C86.0957 10.7985 86.016 10.5319 85.8564 10.377C85.6969 10.2174 85.4964 10.1377 85.2549 10.1377C85.0908 10.1377 84.929 10.1787 84.7695 10.2607C84.6146 10.3428 84.487 10.4567 84.3867 10.6025V12.209C84.3867 12.446 84.3913 12.6738 84.4004 12.8926C84.4095 13.1068 84.4232 13.2435 84.4414 13.3027L85.043 13.4941L85.0088 14H82.2129ZM88.6865 14L88.6523 13.4941L89.2129 13.3027C89.2266 13.1934 89.238 13.0293 89.2471 12.8105C89.2607 12.5872 89.2676 12.3844 89.2676 12.2021L89.2402 11.2998C89.2402 10.8714 89.1536 10.5706 88.9805 10.3975C88.8073 10.2243 88.5954 10.1377 88.3447 10.1377C88.1715 10.1377 88.0029 10.1764 87.8389 10.2539C87.6794 10.3268 87.5472 10.4339 87.4424 10.5752L87.1074 10.1787C87.6315 9.44954 88.2354 9.08496 88.9189 9.08496C89.4385 9.08496 89.8646 9.25586 90.1973 9.59766C90.5299 9.93945 90.6963 10.4248 90.6963 11.0537L90.7168 12.1953C90.7168 12.4414 90.7191 12.6738 90.7236 12.8926C90.7327 13.1068 90.7487 13.2435 90.7715 13.3027L91.4482 13.4941L91.4209 14H88.6865ZM91.7354 14L91.708 13.4736L92.4326 13.3027C92.4372 13.2572 92.444 13.1296 92.4531 12.9199C92.4668 12.7057 92.4782 12.4688 92.4873 12.209L92.4941 11.3955C92.4941 11.1722 92.4873 10.9762 92.4736 10.8076C92.46 10.639 92.4372 10.459 92.4053 10.2676L91.6738 10.1172V9.61133L93.7178 9.10547L94.0254 9.29688C94.0072 9.53385 93.9912 9.77083 93.9775 10.0078C93.9639 10.2448 93.957 10.5114 93.957 10.8076V12.209C93.957 12.446 93.9616 12.6738 93.9707 12.8926C93.9844 13.1113 94.0003 13.248 94.0186 13.3027L94.7432 13.4736L94.7158 14H91.7354ZM93.2529 8.25098C92.9476 8.25098 92.7083 8.15983 92.5352 7.97754C92.362 7.79069 92.2754 7.5765 92.2754 7.33496C92.2754 7.08887 92.362 6.87467 92.5352 6.69238C92.7083 6.51009 92.9476 6.41895 93.2529 6.41895C93.5583 6.41895 93.793 6.51009 93.957 6.69238C94.1211 6.87467 94.2031 7.08887 94.2031 7.33496C94.2031 7.5765 94.1211 7.79069 93.957 7.97754C93.793 8.15983 93.5583 8.25098 93.2529 8.25098ZM95.0713 14L95.0371 13.4941L95.7139 13.3027C95.723 13.2526 95.7321 13.1227 95.7412 12.9131C95.7549 12.6989 95.764 12.4642 95.7686 12.209L95.7822 11.375C95.7822 11.1471 95.7754 10.9535 95.7617 10.7939C95.748 10.6344 95.7253 10.459 95.6934 10.2676L94.9893 10.1172V9.61133L96.9512 9.10547L97.2588 9.29688L97.1973 9.95312L97.2314 9.9668C97.6826 9.37891 98.2227 9.08496 98.8516 9.08496C99.3255 9.08496 99.7197 9.25814 100.034 9.60449C100.349 9.95085 100.506 10.4362 100.506 11.0605V12.1953C100.506 12.4414 100.51 12.6738 100.52 12.8926C100.529 13.1068 100.542 13.2435 100.561 13.3027L101.237 13.4941L101.203 14H98.4209L98.3936 13.4941L99.002 13.3027C99.0156 13.1934 99.027 13.0316 99.0361 12.8174C99.0498 12.5986 99.0566 12.3936 99.0566 12.2021V11.2998C99.0566 10.8851 98.9655 10.5889 98.7832 10.4111C98.6055 10.2288 98.3958 10.1377 98.1543 10.1377C97.7897 10.1377 97.4844 10.2926 97.2383 10.6025V12.209C97.2383 12.4505 97.2428 12.6784 97.252 12.8926C97.2611 13.1068 97.2747 13.2435 97.293 13.3027L97.9492 13.4941L97.915 14H95.0713ZM105.53 14.1436L105.223 13.9795L105.236 13.2549L105.202 13.2412C105.015 13.5648 104.808 13.7904 104.58 13.918C104.357 14.0456 104.129 14.1094 103.896 14.1094C103.514 14.1094 103.156 14.0114 102.823 13.8154C102.495 13.6195 102.231 13.346 102.03 12.9951C101.83 12.6396 101.729 12.2227 101.729 11.7441C101.729 11.2018 101.862 10.7347 102.126 10.3428C102.39 9.94629 102.728 9.64095 103.138 9.42676C103.548 9.20801 103.974 9.09863 104.416 9.09863C104.553 9.09863 104.692 9.1123 104.833 9.13965C104.974 9.16243 105.09 9.19889 105.182 9.24902C105.182 9.05306 105.179 8.84115 105.175 8.61328C105.17 8.38086 105.163 8.16439 105.154 7.96387C105.15 7.75879 105.145 7.60384 105.141 7.49902L104.32 7.37598L104.3 6.89746L106.433 6.34375L106.733 6.54199C106.711 6.99772 106.69 7.41699 106.672 7.7998C106.654 8.17806 106.645 8.57682 106.645 8.99609L106.631 11.5459C106.631 11.9014 106.638 12.1862 106.651 12.4004C106.67 12.6146 106.686 12.8128 106.699 12.9951L107.438 13.1523V13.6309L105.53 14.1436ZM104.443 13.0156C104.553 13.0156 104.678 12.9814 104.819 12.9131C104.965 12.8447 105.09 12.7308 105.195 12.5713V10.1104C105.1 9.9873 104.986 9.90072 104.854 9.85059C104.726 9.7959 104.594 9.76855 104.457 9.76855C104.12 9.76855 103.842 9.91211 103.623 10.1992C103.409 10.4818 103.302 10.8669 103.302 11.3545C103.302 11.8968 103.413 12.3092 103.637 12.5918C103.865 12.8743 104.133 13.0156 104.443 13.0156ZM110.391 14.082C109.908 14.082 109.479 13.9772 109.105 13.7676C108.736 13.5534 108.447 13.264 108.237 12.8994C108.028 12.5303 107.923 12.1156 107.923 11.6553C107.923 11.1494 108.041 10.7051 108.278 10.3223C108.515 9.9349 108.823 9.63184 109.201 9.41309C109.584 9.19434 109.992 9.08496 110.425 9.08496C111.067 9.08496 111.569 9.2832 111.929 9.67969C112.289 10.0762 112.469 10.5957 112.469 11.2383V11.5117H109.235V10.9238H111.361L111.177 11.2041V10.8145C111.177 10.4727 111.102 10.2038 110.951 10.0078C110.805 9.81185 110.6 9.71387 110.336 9.71387C110.072 9.71387 109.848 9.8278 109.666 10.0557C109.484 10.279 109.393 10.6253 109.393 11.0947V11.3203C109.393 11.8262 109.529 12.234 109.803 12.5439C110.081 12.8538 110.45 13.0088 110.91 13.0088C111.161 13.0088 111.386 12.9632 111.587 12.8721C111.792 12.7809 111.99 12.626 112.182 12.4072L112.523 12.7354C112.318 13.1774 112.029 13.5124 111.655 13.7402C111.282 13.9681 110.86 14.082 110.391 14.082ZM113.016 14L112.981 13.4941L113.665 13.3027C113.67 13.2526 113.676 13.1204 113.686 12.9062C113.699 12.6875 113.711 12.4551 113.72 12.209L113.733 11.3818C113.733 11.1722 113.724 10.9854 113.706 10.8213C113.692 10.6527 113.67 10.4681 113.638 10.2676L112.94 10.1172V9.61133L114.868 9.10547L115.169 9.29688L115.121 10.1719L115.155 10.1787C115.36 9.77311 115.57 9.4974 115.784 9.35156C116.003 9.20117 116.229 9.12598 116.461 9.12598C116.657 9.12598 116.83 9.18294 116.98 9.29688C117.135 9.40625 117.213 9.58171 117.213 9.82324C117.213 10.0602 117.131 10.2493 116.967 10.3906C116.807 10.5273 116.618 10.5957 116.399 10.5957C116.222 10.5957 116.06 10.5638 115.914 10.5C115.773 10.4362 115.62 10.32 115.456 10.1514L115.784 10.1787C115.552 10.3291 115.356 10.5661 115.196 10.8896L115.21 11.751C115.215 12.1611 115.221 12.5052 115.23 12.7832C115.24 13.0612 115.249 13.2344 115.258 13.3027L116.215 13.4736L116.188 14H113.016ZM119.523 14.082C119.209 14.082 118.899 14.0479 118.594 13.9795C118.293 13.9111 118.038 13.8223 117.828 13.7129L117.773 12.4141H118.505L118.737 13.207C119.011 13.3711 119.298 13.4531 119.599 13.4531C119.817 13.4531 119.984 13.4098 120.098 13.3232C120.212 13.2321 120.269 13.1136 120.269 12.9678C120.269 12.8037 120.205 12.667 120.077 12.5576C119.954 12.4437 119.694 12.3115 119.298 12.1611C118.765 11.9652 118.391 11.751 118.177 11.5186C117.963 11.2816 117.855 10.9854 117.855 10.6299C117.855 10.1787 118.058 9.80957 118.464 9.52246C118.874 9.23079 119.407 9.08496 120.063 9.08496C120.305 9.08496 120.547 9.10775 120.788 9.15332C121.03 9.19889 121.23 9.25814 121.39 9.33105L121.513 10.6162H120.795L120.556 9.83008C120.483 9.78906 120.392 9.75488 120.282 9.72754C120.177 9.7002 120.079 9.68652 119.988 9.68652C119.774 9.68652 119.601 9.73438 119.469 9.83008C119.337 9.92578 119.271 10.0511 119.271 10.2061C119.271 10.3792 119.35 10.5251 119.51 10.6436C119.674 10.7575 119.97 10.901 120.398 11.0742C120.877 11.2656 121.219 11.4753 121.424 11.7031C121.629 11.931 121.731 12.209 121.731 12.5371C121.731 13.002 121.526 13.3757 121.116 13.6582C120.711 13.9408 120.18 14.082 119.523 14.082Z" fill="#00278C"/>
<path d="M23 14.4307H121.998V14.4922H23V14.4307Z" fill="#00278C"/>
<path d="M9 2.25V3.75" stroke="#2260FF" stroke-width="2" stroke-linecap="round" stroke-linejoin="round"/>
<path d="M9 3.75C6.5175 3.75 4.5 5.7675 4.5 8.25V12.75C3.75 12.75 3 13.5 3 14.25H9M9 3.75C11.4825 3.75 13.5 5.7675 13.5 8.25V12.75C14.25 12.75 15 13.5 15 14.25H9" stroke="#2260FF" stroke-width="2" stroke-linecap="round" stroke-linejoin="round"/>
<path d="M7.5 15C7.5 15.825 8.175 16.5 9 16.5C9.825 16.5 10.5 15.825 10.5 15" stroke="#2260FF" stroke-width="2" stroke-linecap="round" stroke-linejoin="round"/>
</svg>
