<svg width="221" height="30" viewBox="0 0 221 30" fill="none" xmlns="http://www.w3.org/2000/svg">
<rect width="221" height="30" rx="13" fill="#0018A8"/>
<path d="M76.5977 19.0957C76.2878 19.0957 75.946 19.0524 75.5723 18.9658C75.1986 18.8792 74.8796 18.7607 74.6152 18.6104L74.5605 16.9697L75.2852 16.9287L75.6543 18.0771C75.8001 18.1729 75.971 18.248 76.167 18.3027C76.363 18.3529 76.5544 18.3779 76.7412 18.3779C77.0648 18.3779 77.3109 18.3096 77.4795 18.1729C77.6481 18.0361 77.7324 17.8516 77.7324 17.6191C77.7324 17.373 77.6572 17.1725 77.5068 17.0176C77.3564 16.8626 77.1605 16.7327 76.9189 16.6279C76.682 16.5186 76.429 16.4115 76.1602 16.3066C75.8913 16.2018 75.6361 16.0765 75.3945 15.9307C75.1576 15.7803 74.9616 15.5866 74.8066 15.3496C74.6562 15.1126 74.5811 14.8073 74.5811 14.4336C74.5811 13.8411 74.8294 13.3604 75.3262 12.9912C75.8229 12.6221 76.4792 12.4375 77.2949 12.4375C77.5456 12.4375 77.8236 12.4671 78.1289 12.5264C78.4342 12.5811 78.6895 12.654 78.8945 12.7451L79.0312 14.3584L78.3203 14.4062L77.9648 13.3125C77.7233 13.2031 77.4635 13.1484 77.1855 13.1484C76.8984 13.1484 76.6569 13.2236 76.4609 13.374C76.2695 13.5199 76.1738 13.7272 76.1738 13.9961C76.1738 14.2376 76.249 14.4359 76.3994 14.5908C76.5544 14.7412 76.7526 14.8734 76.9941 14.9873C77.2402 15.0967 77.5 15.2061 77.7734 15.3154C78.0469 15.4248 78.3044 15.5547 78.5459 15.7051C78.792 15.8555 78.9925 16.0446 79.1475 16.2725C79.3024 16.5003 79.3799 16.7897 79.3799 17.1406C79.3799 17.5189 79.2637 17.8561 79.0312 18.1523C78.7988 18.444 78.473 18.6742 78.0537 18.8428C77.639 19.0114 77.1536 19.0957 76.5977 19.0957ZM82.5449 19.082C82.0801 19.082 81.6585 18.9818 81.2803 18.7812C80.9066 18.5762 80.6081 18.2959 80.3848 17.9404C80.166 17.5804 80.0566 17.168 80.0566 16.7031C80.0566 16.2383 80.1729 15.8076 80.4053 15.4111C80.6423 15.0146 80.9681 14.6956 81.3828 14.4541C81.7975 14.208 82.2715 14.085 82.8047 14.085C83.2878 14.085 83.6979 14.1829 84.0352 14.3789C84.3724 14.5703 84.541 14.8118 84.541 15.1035C84.541 15.2858 84.4818 15.4248 84.3633 15.5205C84.2493 15.6162 84.1149 15.6641 83.96 15.6641C83.7002 15.6641 83.4495 15.5547 83.208 15.3359L82.3809 14.625L82.9551 14.748C82.6406 14.6842 82.3444 14.7891 82.0664 15.0625C81.7884 15.3314 81.6494 15.7484 81.6494 16.3135C81.6494 16.8695 81.7839 17.291 82.0527 17.5781C82.3262 17.8607 82.6634 18.002 83.0645 18.002C83.265 18.002 83.4655 17.9587 83.666 17.8721C83.8665 17.7809 84.0671 17.6191 84.2676 17.3867L84.6025 17.708C84.3929 18.1637 84.1035 18.5078 83.7344 18.7402C83.3652 18.9681 82.9688 19.082 82.5449 19.082ZM86.8311 19.082C86.4893 19.082 86.1953 19.0114 85.9492 18.8701C85.7077 18.7243 85.5208 18.5488 85.3887 18.3438C85.2611 18.1341 85.1973 17.9382 85.1973 17.7559C85.1973 17.2227 85.5345 16.8581 86.209 16.6621L87.9316 16.1631V15.7871C87.9316 15.5547 87.8245 15.3473 87.6104 15.165C87.4007 14.9782 87.1637 14.8848 86.8994 14.8848C86.7809 14.8848 86.6966 14.9144 86.6465 14.9736C86.6009 15.0283 86.5736 15.1286 86.5645 15.2744L86.5098 15.9648C86.1406 16.0423 85.8353 16.0309 85.5938 15.9307C85.3568 15.8304 85.2383 15.6641 85.2383 15.4316C85.2383 15.2858 85.3112 15.14 85.457 14.9941C85.6074 14.8438 85.7943 14.7048 86.0176 14.5771C86.2409 14.445 86.4665 14.3356 86.6943 14.249C86.9268 14.1624 87.125 14.1077 87.2891 14.085C87.9499 14.085 88.4717 14.2331 88.8545 14.5293C89.2419 14.8255 89.4378 15.2266 89.4424 15.7324L89.4082 17.2295C89.4082 17.6123 89.4355 17.8652 89.4902 17.9883L90.2148 18.1182V18.6035L89.4834 18.9111C89.21 19.0251 88.9775 19.082 88.7861 19.082C88.499 19.082 88.2962 18.9362 88.1777 18.6445L87.9795 18.1387L88.2119 18.1797C87.7471 18.7812 87.2868 19.082 86.8311 19.082ZM87.4121 18.0771C87.6081 18.0771 87.7858 17.9997 87.9453 17.8447V16.7852L87.2412 16.9082C86.8994 16.9538 86.7285 17.1224 86.7285 17.4141C86.7285 17.5827 86.7969 17.7354 86.9336 17.8721C87.0703 18.0088 87.2298 18.0771 87.4121 18.0771ZM90.4951 19L90.4609 18.4941L91.1377 18.3027C91.1468 18.2526 91.1559 18.1227 91.165 17.9131C91.1787 17.6989 91.1878 17.4642 91.1924 17.209L91.2061 16.375C91.2061 16.1471 91.1992 15.9535 91.1855 15.7939C91.1719 15.6344 91.1491 15.459 91.1172 15.2676L90.4131 15.1172V14.6113L92.375 14.1055L92.6826 14.2969L92.6211 14.9531L92.6553 14.9668C93.1064 14.3789 93.6465 14.085 94.2754 14.085C94.7493 14.085 95.1436 14.2581 95.458 14.6045C95.7725 14.9508 95.9297 15.4362 95.9297 16.0605V17.1953C95.9297 17.4414 95.9342 17.6738 95.9434 17.8926C95.9525 18.1068 95.9661 18.2435 95.9844 18.3027L96.6611 18.4941L96.627 19H93.8447L93.8174 18.4941L94.4258 18.3027C94.4395 18.1934 94.4508 18.0316 94.46 17.8174C94.4736 17.5986 94.4805 17.3936 94.4805 17.2021V16.2998C94.4805 15.8851 94.3893 15.5889 94.207 15.4111C94.0293 15.2288 93.8197 15.1377 93.5781 15.1377C93.2135 15.1377 92.9082 15.2926 92.6621 15.6025V17.209C92.6621 17.4505 92.6667 17.6784 92.6758 17.8926C92.6849 18.1068 92.6986 18.2435 92.7168 18.3027L93.373 18.4941L93.3389 19H90.4951ZM98.9102 19L98.8896 18.4463L99.4434 18.2686L101.679 12.8887L102.615 12.3623L105.151 18.2686L105.719 18.4463L105.685 19H102.684L102.649 18.4463L103.347 18.2686L102.772 16.8672L102.649 16.498L101.562 13.9277L101.884 14.0439L100.995 16.457L100.886 16.7852L100.38 18.2686L101.091 18.4463L101.057 19H98.9102ZM100.619 17.1543V16.3955C100.765 16.4001 100.929 16.4092 101.111 16.4229C101.298 16.4365 101.54 16.4434 101.836 16.4434C102.128 16.4434 102.369 16.4365 102.561 16.4229C102.757 16.4092 102.925 16.4001 103.066 16.3955V17.1406C102.939 17.1406 102.777 17.1383 102.581 17.1338C102.39 17.1247 102.141 17.1201 101.836 17.1201C101.531 17.1201 101.282 17.1247 101.091 17.1338C100.904 17.1383 100.747 17.1452 100.619 17.1543ZM108.207 19L108.173 18.4463L108.829 18.2686C108.852 18.223 108.87 18.0452 108.884 17.7354C108.897 17.4255 108.904 17.054 108.904 16.6211L108.918 14.8984C108.918 14.4883 108.909 14.126 108.891 13.8115C108.877 13.4925 108.859 13.3102 108.836 13.2646L108.139 13.1211L108.173 12.5605H110.996C111.912 12.5605 112.593 12.7246 113.04 13.0527C113.487 13.3809 113.71 13.848 113.71 14.4541C113.71 15.0602 113.475 15.5684 113.006 15.9785C112.536 16.3887 111.873 16.5938 111.017 16.5938C110.894 16.5938 110.771 16.5869 110.647 16.5732C110.524 16.555 110.408 16.5368 110.299 16.5186V15.7529C110.372 15.7803 110.467 15.8076 110.586 15.835C110.709 15.8577 110.853 15.8691 111.017 15.8691C111.728 15.8691 112.083 15.4453 112.083 14.5977C112.083 14.11 111.965 13.7546 111.728 13.5312C111.495 13.3034 111.165 13.1895 110.736 13.1895H110.463C110.454 13.2715 110.447 13.4492 110.442 13.7227C110.442 13.9915 110.442 14.3835 110.442 14.8984L110.456 16.6211C110.456 17.054 110.465 17.4255 110.483 17.7354C110.502 18.0452 110.515 18.2207 110.524 18.2617L111.42 18.4258L111.386 19H108.207ZM114.277 19L114.243 18.4941L114.927 18.3027C114.931 18.2526 114.938 18.1204 114.947 17.9062C114.961 17.6875 114.972 17.4551 114.981 17.209L114.995 16.3818C114.995 16.1722 114.986 15.9854 114.968 15.8213C114.954 15.6527 114.931 15.4681 114.899 15.2676L114.202 15.1172V14.6113L116.13 14.1055L116.431 14.2969L116.383 15.1719L116.417 15.1787C116.622 14.7731 116.832 14.4974 117.046 14.3516C117.265 14.2012 117.49 14.126 117.723 14.126C117.919 14.126 118.092 14.1829 118.242 14.2969C118.397 14.4062 118.475 14.5817 118.475 14.8232C118.475 15.0602 118.393 15.2493 118.229 15.3906C118.069 15.5273 117.88 15.5957 117.661 15.5957C117.483 15.5957 117.322 15.5638 117.176 15.5C117.035 15.4362 116.882 15.32 116.718 15.1514L117.046 15.1787C116.813 15.3291 116.618 15.5661 116.458 15.8896L116.472 16.751C116.476 17.1611 116.483 17.5052 116.492 17.7832C116.501 18.0612 116.51 18.2344 116.52 18.3027L117.477 18.4736L117.449 19H114.277ZM121.482 19.082C120.999 19.082 120.571 18.9772 120.197 18.7676C119.828 18.5534 119.539 18.264 119.329 17.8994C119.119 17.5303 119.015 17.1156 119.015 16.6553C119.015 16.1494 119.133 15.7051 119.37 15.3223C119.607 14.9349 119.915 14.6318 120.293 14.4131C120.676 14.1943 121.084 14.085 121.517 14.085C122.159 14.085 122.66 14.2832 123.021 14.6797C123.381 15.0762 123.561 15.5957 123.561 16.2383V16.5117H120.327V15.9238H122.453L122.269 16.2041V15.8145C122.269 15.4727 122.193 15.2038 122.043 15.0078C121.897 14.8118 121.692 14.7139 121.428 14.7139C121.163 14.7139 120.94 14.8278 120.758 15.0557C120.576 15.279 120.484 15.6253 120.484 16.0947V16.3203C120.484 16.8262 120.621 17.234 120.895 17.5439C121.173 17.8538 121.542 18.0088 122.002 18.0088C122.253 18.0088 122.478 17.9632 122.679 17.8721C122.884 17.7809 123.082 17.626 123.273 17.4072L123.615 17.7354C123.41 18.1774 123.121 18.5124 122.747 18.7402C122.373 18.9681 121.952 19.082 121.482 19.082ZM126.049 19.082C125.734 19.082 125.424 19.0479 125.119 18.9795C124.818 18.9111 124.563 18.8223 124.354 18.7129L124.299 17.4141H125.03L125.263 18.207C125.536 18.3711 125.823 18.4531 126.124 18.4531C126.343 18.4531 126.509 18.4098 126.623 18.3232C126.737 18.2321 126.794 18.1136 126.794 17.9678C126.794 17.8037 126.73 17.667 126.603 17.5576C126.479 17.4437 126.22 17.3115 125.823 17.1611C125.29 16.9652 124.916 16.751 124.702 16.5186C124.488 16.2816 124.381 15.9854 124.381 15.6299C124.381 15.1787 124.584 14.8096 124.989 14.5225C125.399 14.2308 125.933 14.085 126.589 14.085C126.83 14.085 127.072 14.1077 127.313 14.1533C127.555 14.1989 127.756 14.2581 127.915 14.3311L128.038 15.6162H127.32L127.081 14.8301C127.008 14.7891 126.917 14.7549 126.808 14.7275C126.703 14.7002 126.605 14.6865 126.514 14.6865C126.299 14.6865 126.126 14.7344 125.994 14.8301C125.862 14.9258 125.796 15.0511 125.796 15.2061C125.796 15.3792 125.876 15.5251 126.035 15.6436C126.199 15.7575 126.495 15.901 126.924 16.0742C127.402 16.2656 127.744 16.4753 127.949 16.7031C128.154 16.931 128.257 17.209 128.257 17.5371C128.257 18.002 128.052 18.3757 127.642 18.6582C127.236 18.9408 126.705 19.082 126.049 19.082ZM131.381 19.082C130.916 19.082 130.494 18.9818 130.116 18.7812C129.743 18.5762 129.444 18.2959 129.221 17.9404C129.002 17.5804 128.893 17.168 128.893 16.7031C128.893 16.2383 129.009 15.8076 129.241 15.4111C129.478 15.0146 129.804 14.6956 130.219 14.4541C130.633 14.208 131.107 14.085 131.641 14.085C132.124 14.085 132.534 14.1829 132.871 14.3789C133.208 14.5703 133.377 14.8118 133.377 15.1035C133.377 15.2858 133.318 15.4248 133.199 15.5205C133.085 15.6162 132.951 15.6641 132.796 15.6641C132.536 15.6641 132.285 15.5547 132.044 15.3359L131.217 14.625L131.791 14.748C131.477 14.6842 131.18 14.7891 130.902 15.0625C130.624 15.3314 130.485 15.7484 130.485 16.3135C130.485 16.8695 130.62 17.291 130.889 17.5781C131.162 17.8607 131.499 18.002 131.9 18.002C132.101 18.002 132.301 17.9587 132.502 17.8721C132.702 17.7809 132.903 17.6191 133.104 17.3867L133.438 17.708C133.229 18.1637 132.939 18.5078 132.57 18.7402C132.201 18.9681 131.805 19.082 131.381 19.082ZM133.801 19L133.767 18.4941L134.45 18.3027C134.455 18.2526 134.462 18.1204 134.471 17.9062C134.484 17.6875 134.496 17.4551 134.505 17.209L134.519 16.3818C134.519 16.1722 134.509 15.9854 134.491 15.8213C134.478 15.6527 134.455 15.4681 134.423 15.2676L133.726 15.1172V14.6113L135.653 14.1055L135.954 14.2969L135.906 15.1719L135.94 15.1787C136.146 14.7731 136.355 14.4974 136.569 14.3516C136.788 14.2012 137.014 14.126 137.246 14.126C137.442 14.126 137.615 14.1829 137.766 14.2969C137.921 14.4062 137.998 14.5817 137.998 14.8232C137.998 15.0602 137.916 15.2493 137.752 15.3906C137.592 15.5273 137.403 15.5957 137.185 15.5957C137.007 15.5957 136.845 15.5638 136.699 15.5C136.558 15.4362 136.405 15.32 136.241 15.1514L136.569 15.1787C136.337 15.3291 136.141 15.5661 135.981 15.8896L135.995 16.751C136 17.1611 136.007 17.5052 136.016 17.7832C136.025 18.0612 136.034 18.2344 136.043 18.3027L137 18.4736L136.973 19H133.801ZM138.319 19L138.292 18.4736L139.017 18.3027C139.021 18.2572 139.028 18.1296 139.037 17.9199C139.051 17.7057 139.062 17.4688 139.071 17.209L139.078 16.3955C139.078 16.1722 139.071 15.9762 139.058 15.8076C139.044 15.639 139.021 15.459 138.989 15.2676L138.258 15.1172V14.6113L140.302 14.1055L140.609 14.2969C140.591 14.5339 140.575 14.7708 140.562 15.0078C140.548 15.2448 140.541 15.5114 140.541 15.8076V17.209C140.541 17.446 140.546 17.6738 140.555 17.8926C140.568 18.1113 140.584 18.248 140.603 18.3027L141.327 18.4736L141.3 19H138.319ZM139.837 13.251C139.532 13.251 139.292 13.1598 139.119 12.9775C138.946 12.7907 138.859 12.5765 138.859 12.335C138.859 12.0889 138.946 11.8747 139.119 11.6924C139.292 11.5101 139.532 11.4189 139.837 11.4189C140.142 11.4189 140.377 11.5101 140.541 11.6924C140.705 11.8747 140.787 12.0889 140.787 12.335C140.787 12.5765 140.705 12.7907 140.541 12.9775C140.377 13.1598 140.142 13.251 139.837 13.251ZM141.621 21.4131L141.587 20.9004L142.264 20.709C142.268 20.6452 142.275 20.4948 142.284 20.2578C142.293 20.0254 142.302 19.752 142.312 19.4375C142.321 19.1276 142.327 18.8223 142.332 18.5215L142.353 16.3887C142.353 16.1745 142.346 15.9831 142.332 15.8145C142.318 15.6413 142.296 15.459 142.264 15.2676L141.56 15.1172V14.6113L143.521 14.1055L143.836 14.2969L143.754 14.9736L143.788 15.001C143.957 14.7184 144.171 14.4951 144.431 14.3311C144.695 14.167 144.975 14.085 145.271 14.085C145.622 14.085 145.951 14.1761 146.256 14.3584C146.561 14.5361 146.807 14.7959 146.994 15.1377C147.186 15.4795 147.281 15.8942 147.281 16.3818C147.281 16.8604 147.17 17.3047 146.946 17.7148C146.728 18.1204 146.413 18.4486 146.003 18.6992C145.597 18.9499 145.117 19.0752 144.561 19.0752C144.324 19.0752 144.071 19.0342 143.802 18.9521V19.6289C143.802 19.8704 143.806 20.0938 143.815 20.2988C143.825 20.5039 143.838 20.6406 143.856 20.709L144.759 20.8867L144.725 21.4131H141.621ZM144.574 18.2891C144.898 18.2891 145.167 18.1683 145.381 17.9268C145.595 17.6852 145.702 17.2865 145.702 16.7305C145.707 16.1608 145.595 15.7552 145.367 15.5137C145.139 15.2721 144.886 15.1514 144.608 15.1514C144.458 15.1514 144.312 15.1901 144.171 15.2676C144.03 15.3451 143.907 15.4476 143.802 15.5752V18.0635C144.034 18.2139 144.292 18.2891 144.574 18.2891ZM151.793 18.0635C151.679 18.387 151.476 18.6423 151.185 18.8291C150.893 19.016 150.567 19.1094 150.207 19.1094C149.688 19.1094 149.264 18.9613 148.936 18.665C148.612 18.3688 148.45 17.9222 148.45 17.3252L148.484 14.8848H147.719V14.543L149.646 13.0254H149.981L149.954 14.5977L149.934 17.1953C149.934 17.4961 150.007 17.7103 150.152 17.8379C150.303 17.9655 150.51 18.0293 150.774 18.0293C151.043 18.0293 151.287 17.9336 151.506 17.7422L151.793 18.0635ZM149.435 14.8848V14.1807H151.499V14.8848H149.435ZM151.909 19L151.882 18.4736L152.606 18.3027C152.611 18.2572 152.618 18.1296 152.627 17.9199C152.641 17.7057 152.652 17.4688 152.661 17.209L152.668 16.3955C152.668 16.1722 152.661 15.9762 152.647 15.8076C152.634 15.639 152.611 15.459 152.579 15.2676L151.848 15.1172V14.6113L153.892 14.1055L154.199 14.2969C154.181 14.5339 154.165 14.7708 154.151 15.0078C154.138 15.2448 154.131 15.5114 154.131 15.8076V17.209C154.131 17.446 154.135 17.6738 154.145 17.8926C154.158 18.1113 154.174 18.248 154.192 18.3027L154.917 18.4736L154.89 19H151.909ZM153.427 13.251C153.121 13.251 152.882 13.1598 152.709 12.9775C152.536 12.7907 152.449 12.5765 152.449 12.335C152.449 12.0889 152.536 11.8747 152.709 11.6924C152.882 11.5101 153.121 11.4189 153.427 11.4189C153.732 11.4189 153.967 11.5101 154.131 11.6924C154.295 11.8747 154.377 12.0889 154.377 12.335C154.377 12.5765 154.295 12.7907 154.131 12.9775C153.967 13.1598 153.732 13.251 153.427 13.251ZM158.021 19.082C157.51 19.082 157.059 18.9795 156.667 18.7744C156.275 18.5648 155.967 18.2777 155.744 17.9131C155.525 17.5439 155.416 17.1201 155.416 16.6416C155.416 16.0993 155.541 15.639 155.792 15.2607C156.043 14.8779 156.368 14.5863 156.77 14.3857C157.175 14.1852 157.608 14.085 158.068 14.085C158.556 14.085 158.987 14.1898 159.36 14.3994C159.734 14.6045 160.026 14.8916 160.235 15.2607C160.445 15.6299 160.55 16.0537 160.55 16.5322C160.55 17.0107 160.436 17.4437 160.208 17.8311C159.985 18.2139 159.682 18.5192 159.299 18.7471C158.916 18.9704 158.49 19.082 158.021 19.082ZM158.13 18.3711C158.399 18.3711 158.606 18.2412 158.752 17.9814C158.898 17.7217 158.971 17.3571 158.971 16.8877C158.971 16.2542 158.87 15.7415 158.67 15.3496C158.474 14.9577 158.214 14.7617 157.891 14.7617C157.626 14.7617 157.414 14.9007 157.255 15.1787C157.1 15.4521 157.022 15.8304 157.022 16.3135C157.022 16.9014 157.127 17.3913 157.337 17.7832C157.551 18.1751 157.815 18.3711 158.13 18.3711ZM161.124 19L161.09 18.4941L161.767 18.3027C161.776 18.2526 161.785 18.1227 161.794 17.9131C161.808 17.6989 161.817 17.4642 161.821 17.209L161.835 16.375C161.835 16.1471 161.828 15.9535 161.814 15.7939C161.801 15.6344 161.778 15.459 161.746 15.2676L161.042 15.1172V14.6113L163.004 14.1055L163.312 14.2969L163.25 14.9531L163.284 14.9668C163.735 14.3789 164.275 14.085 164.904 14.085C165.378 14.085 165.772 14.2581 166.087 14.6045C166.401 14.9508 166.559 15.4362 166.559 16.0605V17.1953C166.559 17.4414 166.563 17.6738 166.572 17.8926C166.581 18.1068 166.595 18.2435 166.613 18.3027L167.29 18.4941L167.256 19H164.474L164.446 18.4941L165.055 18.3027C165.068 18.1934 165.08 18.0316 165.089 17.8174C165.103 17.5986 165.109 17.3936 165.109 17.2021V16.2998C165.109 15.8851 165.018 15.5889 164.836 15.4111C164.658 15.2288 164.449 15.1377 164.207 15.1377C163.842 15.1377 163.537 15.2926 163.291 15.6025V17.209C163.291 17.4505 163.296 17.6784 163.305 17.8926C163.314 18.1068 163.327 18.2435 163.346 18.3027L164.002 18.4941L163.968 19H161.124Z" fill="white"/>
<path d="M62.375 6.75V10.5C62.375 10.7984 62.2565 11.0845 62.0455 11.2955C61.8345 11.5065 61.5484 11.625 61.25 11.625C60.9516 11.625 60.6655 11.5065 60.4545 11.2955C60.2435 11.0845 60.125 10.7984 60.125 10.5V7.875H57.5C57.2016 7.875 56.9155 7.75647 56.7045 7.5455C56.4935 7.33452 56.375 7.04837 56.375 6.75C56.375 6.45163 56.4935 6.16548 56.7045 5.9545C56.9155 5.74353 57.2016 5.625 57.5 5.625H61.25C61.5484 5.625 61.8345 5.74353 62.0455 5.9545C62.2565 6.16548 62.375 6.45163 62.375 6.75ZM48.5 22.125H45.875V19.5C45.875 19.2016 45.7565 18.9155 45.5455 18.7045C45.3345 18.4935 45.0484 18.375 44.75 18.375C44.4516 18.375 44.1655 18.4935 43.9545 18.7045C43.7435 18.9155 43.625 19.2016 43.625 19.5V23.25C43.625 23.5484 43.7435 23.8345 43.9545 24.0455C44.1655 24.2565 44.4516 24.375 44.75 24.375H48.5C48.7984 24.375 49.0845 24.2565 49.2955 24.0455C49.5065 23.8345 49.625 23.5484 49.625 23.25C49.625 22.9516 49.5065 22.6655 49.2955 22.4545C49.0845 22.2435 48.7984 22.125 48.5 22.125ZM61.25 18.375C60.9516 18.375 60.6655 18.4935 60.4545 18.7045C60.2435 18.9155 60.125 19.2016 60.125 19.5V22.125H57.5C57.2016 22.125 56.9155 22.2435 56.7045 22.4545C56.4935 22.6655 56.375 22.9516 56.375 23.25C56.375 23.5484 56.4935 23.8345 56.7045 24.0455C56.9155 24.2565 57.2016 24.375 57.5 24.375H61.25C61.5484 24.375 61.8345 24.2565 62.0455 24.0455C62.2565 23.8345 62.375 23.5484 62.375 23.25V19.5C62.375 19.2016 62.2565 18.9155 62.0455 18.7045C61.8345 18.4935 61.5484 18.375 61.25 18.375ZM44.75 11.625C45.0484 11.625 45.3345 11.5065 45.5455 11.2955C45.7565 11.0845 45.875 10.7984 45.875 10.5V7.875H48.5C48.7984 7.875 49.0845 7.75647 49.2955 7.5455C49.5065 7.33452 49.625 7.04837 49.625 6.75C49.625 6.45163 49.5065 6.16548 49.2955 5.9545C49.0845 5.74353 48.7984 5.625 48.5 5.625H44.75C44.4516 5.625 44.1655 5.74353 43.9545 5.9545C43.7435 6.16548 43.625 6.45163 43.625 6.75V10.5C43.625 10.7984 43.7435 11.0845 43.9545 11.2955C44.1655 11.5065 44.4516 11.625 44.75 11.625ZM48.875 9.75H57.125C57.4234 9.75 57.7095 9.86853 57.9205 10.0795C58.1315 10.2905 58.25 10.5766 58.25 10.875V19.125C58.25 19.4234 58.1315 19.7095 57.9205 19.9205C57.7095 20.1315 57.4234 20.25 57.125 20.25H48.875C48.5766 20.25 48.2905 20.1315 48.0795 19.9205C47.8685 19.7095 47.75 19.4234 47.75 19.125V10.875C47.75 10.5766 47.8685 10.2905 48.0795 10.0795C48.2905 9.86853 48.5766 9.75 48.875 9.75ZM50 18H56V12H50V18Z" fill="#0D99FF"/>
</svg>
