<svg width="27" height="27" viewBox="0 0 27 27" fill="none" xmlns="http://www.w3.org/2000/svg">
<circle cx="13.5" cy="13.5" r="13.5" fill="#CAD6FF"/>
<path d="M11.7534 5V4.5C11.4773 4.5 11.2534 4.72386 11.2534 5H11.7534ZM15.2466 5H15.7466C15.7466 4.72386 15.5227 4.5 15.2466 4.5V5ZM15.2466 22V22.5C15.5227 22.5 15.7466 22.2761 15.7466 22H15.2466ZM11.7534 22H11.2534C11.2534 22.2761 11.4773 22.5 11.7534 22.5V22ZM22 11.7534H22.5C22.5 11.4773 22.2761 11.2534 22 11.2534V11.7534ZM22 15.2466V15.7466C22.1326 15.7466 22.2598 15.6939 22.3536 15.6001C22.4473 15.5064 22.5 15.3792 22.5 15.2466H22ZM5 15.2466H4.5C4.5 15.5227 4.72386 15.7466 5 15.7466L5 15.2466ZM5 11.7534L5 11.2534C4.86739 11.2534 4.74021 11.3061 4.64645 11.3999C4.55268 11.4936 4.5 11.6208 4.5 11.7534H5ZM18.2754 6.25458L18.6289 5.90102C18.4345 5.70655 18.1195 5.70565 17.9239 5.899L18.2754 6.25458ZM20.7454 8.72461L21.101 9.07612C21.2944 8.88054 21.2934 8.56552 21.099 8.37105L20.7454 8.72461ZM8.72461 20.7454L8.37105 21.099C8.56561 21.2935 8.88079 21.2943 9.07634 21.1008L8.72461 20.7454ZM6.25458 18.2754L5.89921 17.9237C5.70566 18.1192 5.70647 18.4344 5.90102 18.6289L6.25458 18.2754ZM20.7454 18.2754L21.099 18.6289C21.2917 18.4363 21.2946 18.1248 21.1055 17.9285L20.7454 18.2754ZM18.2754 20.7454L17.9189 21.096C18.0124 21.1911 18.14 21.2449 18.2733 21.2454C18.4066 21.246 18.5347 21.1933 18.6289 21.099L18.2754 20.7454ZM6.25458 8.72461L5.90103 8.37105C5.80726 8.46482 5.75458 8.592 5.75458 8.72461C5.75458 8.85721 5.80726 8.98439 5.90103 9.07816L6.25458 8.72461ZM8.72461 6.25458L9.07816 5.90102C8.8829 5.70576 8.56632 5.70576 8.37106 5.90102L8.72461 6.25458ZM19.1339 15.2466V14.7466H18.7749L18.6602 15.0867L19.1339 15.2466ZM18.7251 16.1781L18.2866 15.9377L18.1099 16.2602L18.365 16.525L18.7251 16.1781ZM16.1781 18.6131L16.5346 18.2625L16.2816 18.0053L15.9578 18.1642L16.1781 18.6131ZM15.2466 18.9742L15.1068 18.4941L14.7466 18.599V18.9742H15.2466ZM11.7534 18.901H12.2534V18.5421L11.9133 18.4273L11.7534 18.901ZM10.9384 18.5543L11.1687 18.1105L10.8454 17.9428L10.5866 18.1989L10.9384 18.5543ZM8.44569 16.0616L8.80105 16.4134L9.05723 16.1546L8.88948 15.8313L8.44569 16.0616ZM8.09898 15.2466L8.57272 15.0867L8.45793 14.7466L8.09898 14.7466L8.09898 15.2466ZM8.02582 11.7534V12.2534H8.40103L8.5059 11.8932L8.02582 11.7534ZM8.37543 10.8455L8.82528 11.0637L8.98062 10.7435L8.72898 10.4919L8.37543 10.8455ZM10.7724 8.30238L10.4189 8.65594L10.6867 8.92376L11.017 8.73846L10.7724 8.30238ZM11.7534 7.8661L11.9133 8.33985L12.2534 8.22505V7.8661H11.7534ZM15.2466 7.79294H14.7466V8.16815L15.1068 8.27302L15.2466 7.79294ZM16.2945 8.21281L16.0642 8.6566L16.3872 8.82425L16.646 8.56839L16.2945 8.21281ZM18.7872 10.7055L18.4316 10.354L18.1758 10.6128L18.3434 10.9358L18.7872 10.7055ZM19.2071 11.7534L18.727 11.8932L18.8318 12.2534L19.2071 12.2534V11.7534ZM11.7534 5.5H15.2466V4.5H11.7534V5.5ZM15.2466 21.5H11.7534V22.5H15.2466V21.5ZM21.5 11.7534V15.2466H22.5V11.7534H21.5ZM5.5 15.2466V11.7534H4.5V15.2466H5.5ZM17.9218 6.60813L20.3919 9.07816L21.099 8.37105L18.6289 5.90102L17.9218 6.60813ZM9.07816 20.3919L6.60813 17.9218L5.90102 18.6289L8.37105 21.099L9.07816 20.3919ZM20.3919 17.9218L17.9218 20.3919L18.6289 21.099L21.099 18.6289L20.3919 17.9218ZM6.60813 9.07816L9.07816 6.60813L8.37106 5.90102L5.90103 8.37105L6.60813 9.07816ZM18.6602 15.0867C18.5602 15.3828 18.4348 15.6674 18.2866 15.9377L19.1635 16.4184C19.3396 16.0971 19.4887 15.7588 19.6076 15.4065L18.6602 15.0867ZM15.9578 18.1642C15.6863 18.2975 15.4018 18.4082 15.1068 18.4941L15.3863 19.4543C15.7373 19.3521 16.0756 19.2204 16.3984 19.0619L15.9578 18.1642ZM11.9133 18.4273C11.6558 18.3403 11.407 18.2342 11.1687 18.1105L10.708 18.9981C10.9913 19.1451 11.2871 19.2713 11.5935 19.3748L11.9133 18.4273ZM8.88948 15.8313C8.76581 15.593 8.65966 15.3442 8.57272 15.0867L7.62524 15.4065C7.72866 15.7129 7.8549 16.0087 8.0019 16.292L8.88948 15.8313ZM8.5059 11.8932C8.5895 11.6059 8.6967 11.3287 8.82528 11.0637L7.92558 10.6272C7.77272 10.9423 7.64521 11.272 7.54575 11.6137L8.5059 11.8932ZM11.017 8.73846C11.3008 8.57927 11.6006 8.4454 11.9133 8.33985L11.5935 7.39236C11.2215 7.51794 10.865 7.67714 10.5278 7.8663L11.017 8.73846ZM15.1068 8.27302C15.4406 8.37018 15.7609 8.4992 16.0642 8.6566L16.5248 7.76902C16.1643 7.58192 15.7834 7.42846 15.3863 7.31287L15.1068 8.27302ZM18.3434 10.9358C18.5008 11.2391 18.6298 11.5594 18.727 11.8932L19.6871 11.6137C19.5715 11.2166 19.4181 10.8357 19.231 10.4752L18.3434 10.9358ZM12.2534 7.8661V5H11.2534V7.8661H12.2534ZM14.7466 5V7.79294H15.7466V5H14.7466ZM8.37106 6.60813L10.4189 8.65594L11.126 7.94883L9.07816 5.90102L8.37106 6.60813ZM8.72898 10.4919L6.60813 8.37105L5.90103 9.07816L8.02187 11.199L8.72898 10.4919ZM16.646 8.56839L18.6269 6.61016L17.9239 5.899L15.943 7.85723L16.646 8.56839ZM20.3898 8.37309L18.4316 10.354L19.1428 11.057L21.101 9.07612L20.3898 8.37309ZM19.2071 12.2534L22 12.2534V11.2534L19.2071 11.2534V12.2534ZM22 14.7466L19.1339 14.7466V15.7466L22 15.7466V14.7466ZM18.365 16.525L20.3853 18.6223L21.1055 17.9285L19.0852 15.8312L18.365 16.525ZM18.6319 20.3948L16.5346 18.2625L15.8216 18.9637L17.9189 21.096L18.6319 20.3948ZM14.7466 18.9742V22H15.7466V18.9742H14.7466ZM12.2534 22V18.901H11.2534V22H12.2534ZM10.5866 18.1989L8.37288 20.3901L9.07634 21.1008L11.2901 18.9097L10.5866 18.1989ZM6.60994 18.6271L8.80105 16.4134L8.09032 15.7099L5.89921 17.9237L6.60994 18.6271ZM8.09898 14.7466L5 14.7466L5 15.7466L8.09898 15.7466L8.09898 14.7466ZM5 12.2534L8.02582 12.2534L8.02582 11.2534L5 11.2534L5 12.2534ZM15.4223 13.0845C15.6374 14.1592 14.9453 15.1694 13.8817 15.3529L14.0518 16.3383C15.6767 16.0579 16.727 14.5079 16.4029 12.8883L15.4223 13.0845ZM13.8817 15.3529C12.8077 15.5383 11.752 14.813 11.535 13.7284L10.5544 13.9246C10.8765 15.5343 12.4374 16.617 14.0518 16.3383L13.8817 15.3529ZM11.535 13.7284C11.3199 12.6538 12.012 11.6436 13.0756 11.46L12.9055 10.4746C11.2806 10.755 10.2303 12.3051 10.5544 13.9246L11.535 13.7284ZM13.0756 11.46C14.1496 11.2747 15.2053 12 15.4223 13.0845L16.4029 12.8883C16.0808 11.2787 14.5199 10.196 12.9055 10.4746L13.0756 11.46Z" fill="black"/>
</svg>
